<svg id="svg" version="1.1" xmlns="http://www.w3.org/2000/svg" xmlns:xlink="http://www.w3.org/1999/xlink" width="400" height="400.4347826086956" viewBox="0, 0, 400,400.4347826086956"><g id="svgg"><path id="path0" d="M103.200 23.649 C 101.350 24.387,100.464 25.665,97.169 32.346 C 84.028 58.996,81.514 64.000,81.273 63.999 C 80.962 63.998,72.401 65.220,64.400 66.406 C 61.430 66.847,55.310 67.741,50.800 68.394 C 37.256 70.354,35.852 70.923,35.002 74.792 C 34.092 78.934,32.798 77.438,61.312 105.219 L 66.424 110.200 65.006 118.800 C 64.227 123.530,63.315 128.930,62.980 130.800 C 58.926 153.433,58.901 153.727,60.838 156.451 C 63.350 159.986,66.214 159.709,75.043 155.076 C 78.979 153.010,84.450 150.145,87.200 148.708 C 89.950 147.271,93.010 145.650,94.000 145.105 C 94.990 144.561,98.053 142.929,100.806 141.481 L 105.812 138.846 119.406 145.944 C 126.883 149.847,135.468 154.337,138.484 155.920 C 144.866 159.272,146.664 159.582,149.306 157.786 C 152.528 155.597,152.821 153.932,151.400 145.872 C 150.850 142.753,149.773 136.330,149.006 131.600 C 147.219 120.570,147.092 120.128,145.621 119.805 C 143.503 119.339,141.654 116.880,142.663 115.870 C 142.808 115.726,142.959 114.661,142.999 113.504 C 143.140 109.430,143.419 108.876,145.491 108.565 C 147.469 108.269,147.715 108.043,169.657 86.400 C 177.303 78.858,177.798 78.006,176.610 74.430 C 175.386 70.745,174.405 70.289,164.957 69.009 C 157.716 68.029,156.126 67.782,151.200 66.876 C 149.990 66.653,147.290 66.254,145.200 65.988 C 143.110 65.723,139.084 65.167,136.252 64.753 C 133.421 64.339,130.868 64.000,130.579 64.000 C 130.290 64.000,129.927 63.595,129.772 63.100 C 129.353 61.760,112.835 28.499,111.517 26.341 C 109.804 23.536,106.316 22.407,103.200 23.649 M248.432 56.076 C 248.414 56.888,248.228 57.659,248.017 57.789 C 247.807 57.919,247.736 58.290,247.860 58.613 C 247.984 58.936,247.886 59.200,247.643 59.200 C 247.399 59.200,247.200 59.639,247.200 60.176 C 247.200 61.575,246.533 61.794,246.221 60.497 C 245.399 57.094,245.122 56.400,244.585 56.400 C 244.263 56.400,244.000 56.580,244.000 56.800 C 244.000 57.020,243.595 57.205,243.100 57.211 C 242.231 57.221,242.237 57.244,243.264 57.882 C 244.978 58.945,245.156 61.735,243.574 62.723 C 242.934 63.123,242.800 63.100,242.800 62.591 C 242.800 62.252,243.070 61.871,243.400 61.745 C 243.730 61.618,244.000 61.060,244.000 60.504 C 244.000 58.108,240.208 57.075,239.443 59.263 C 238.975 60.602,239.798 62.853,240.637 62.530 C 240.947 62.412,241.200 62.500,241.200 62.728 C 241.200 62.955,241.515 63.239,241.900 63.358 C 242.285 63.477,241.881 63.495,241.001 63.397 C 240.122 63.299,239.212 62.958,238.980 62.640 C 238.616 62.143,238.497 62.155,238.125 62.731 C 237.478 63.734,237.164 63.120,237.581 61.666 C 237.824 60.820,237.812 60.469,237.548 60.632 C 236.994 60.975,237.282 59.525,237.897 58.874 C 238.170 58.585,238.555 58.449,238.752 58.570 C 238.949 58.692,239.085 58.478,239.055 58.096 C 239.016 57.600,239.259 57.427,239.900 57.495 C 240.395 57.548,240.800 57.451,240.800 57.280 C 240.800 57.110,240.260 56.929,239.600 56.879 C 238.924 56.827,238.400 56.984,238.400 57.237 C 238.400 57.518,238.021 57.592,237.390 57.433 C 236.469 57.202,236.402 57.269,236.633 58.190 C 236.855 59.072,236.758 59.200,235.867 59.200 C 235.306 59.200,234.734 59.383,234.596 59.607 C 234.458 59.830,234.222 59.938,234.072 59.846 C 233.923 59.755,233.799 60.546,233.798 61.605 C 233.797 62.734,233.933 63.338,234.128 63.065 C 234.378 62.717,234.512 62.726,234.665 63.102 C 234.777 63.379,235.053 63.491,235.279 63.351 C 235.505 63.212,235.847 63.346,236.039 63.649 C 236.313 64.081,236.389 64.087,236.394 63.676 C 236.397 63.388,236.580 63.264,236.800 63.400 C 237.795 64.015,237.122 64.490,235.600 64.246 C 234.662 64.096,234.000 64.150,234.000 64.376 C 234.000 64.854,234.897 66.928,235.222 67.200 C 235.353 67.310,235.807 68.030,236.230 68.800 C 236.654 69.570,237.315 70.491,237.700 70.847 C 238.553 71.636,238.574 72.726,237.791 75.600 C 236.459 80.484,237.859 82.591,242.247 82.310 C 248.394 81.915,250.562 78.361,247.791 73.219 C 246.210 70.284,246.146 69.832,247.055 68.010 C 247.415 67.288,247.799 65.910,247.907 64.949 C 248.015 63.987,248.261 63.200,248.452 63.200 C 248.643 63.200,248.800 62.322,248.800 61.249 C 248.800 59.703,248.977 59.180,249.650 58.733 C 250.611 58.095,250.413 55.600,249.402 55.600 C 249.107 55.600,248.776 55.375,248.665 55.100 C 248.554 54.825,248.449 55.264,248.432 56.076 M120.400 79.400 L 120.400 84.800 112.200 84.800 L 104.000 84.800 104.000 85.944 C 104.000 86.573,103.891 87.880,103.759 88.848 L 103.518 90.609 108.459 90.604 C 114.042 90.599,116.113 91.345,119.296 94.506 C 126.345 101.508,124.379 115.845,115.800 119.992 C 110.183 122.708,98.071 122.846,91.894 120.265 L 90.433 119.655 90.430 114.768 C 90.425 108.818,90.248 109.101,93.294 110.196 C 103.572 113.890,110.407 112.322,110.499 106.248 C 110.571 101.490,106.544 99.595,98.891 100.786 C 95.790 101.268,95.686 101.257,93.619 100.210 L 91.511 99.142 91.717 95.071 C 91.831 92.832,92.017 90.370,92.132 89.600 C 92.246 88.830,92.445 86.490,92.572 84.400 C 92.700 82.310,92.914 79.115,93.049 77.300 L 93.295 74.000 106.847 74.000 L 120.400 74.000 120.400 79.400 M249.938 134.082 C 249.054 134.381,248.189 135.834,244.795 142.721 C 239.943 152.565,241.045 151.260,237.088 151.841 C 221.576 154.120,221.029 154.247,220.577 155.673 C 220.217 156.808,220.772 158.735,221.633 159.338 C 222.056 159.634,225.025 162.447,228.231 165.589 L 234.059 171.302 233.207 176.151 C 232.739 178.818,232.010 182.956,231.589 185.347 C 230.782 189.925,230.892 190.793,232.383 191.591 C 233.736 192.315,234.630 192.048,239.862 189.357 C 242.688 187.903,246.345 186.021,247.988 185.174 L 250.976 183.635 254.188 185.256 C 257.288 186.821,259.000 188.000,258.173 188.000 C 257.617 188.000,257.507 190.006,258.029 190.635 C 258.265 190.920,258.692 191.063,258.978 190.953 C 259.263 190.844,259.769 191.026,260.101 191.358 C 260.433 191.690,260.812 191.855,260.943 191.724 C 261.074 191.593,261.466 191.723,261.814 192.012 C 262.809 192.837,264.377 192.836,265.086 192.008 C 265.581 191.430,265.935 191.347,266.687 191.633 C 270.247 192.987,271.588 190.272,270.163 184.596 C 269.934 183.683,269.857 183.655,269.069 184.207 C 267.924 185.009,267.121 184.955,265.186 183.946 C 262.231 182.406,262.138 181.961,263.599 176.315 C 265.386 169.410,267.123 163.248,267.416 162.774 C 267.553 162.552,268.172 160.598,268.792 158.430 C 269.411 156.262,270.031 154.133,270.169 153.699 C 270.459 152.783,268.954 152.254,264.257 151.619 C 262.749 151.415,261.468 151.192,261.410 151.124 C 261.352 151.056,259.468 147.278,257.223 142.729 C 252.836 133.841,252.351 133.265,249.938 134.082 M312.975 301.041 L 308.219 304.082 306.209 303.201 C 295.001 298.286,294.754 298.372,296.960 306.422 C 298.480 311.964,298.480 312.035,296.967 310.846 C 295.231 309.480,292.493 310.226,292.366 312.100 C 292.348 312.375,292.303 314.114,292.266 315.965 C 292.196 319.552,291.569 320.633,290.778 318.533 C 288.703 313.021,286.665 310.000,285.024 310.000 C 283.091 310.000,282.807 310.395,278.396 319.209 L 274.441 327.110 272.436 327.591 C 270.192 328.130,270.181 328.148,269.803 332.200 C 269.491 335.553,267.617 352.090,267.197 355.200 C 265.871 365.029,265.965 364.784,263.500 364.794 C 262.675 364.797,262.000 364.993,262.000 365.229 C 262.000 365.464,261.595 365.624,261.100 365.584 C 259.411 365.448,258.800 365.600,258.800 366.157 C 258.800 367.156,262.832 367.720,263.400 366.800 C 263.873 366.035,265.843 366.382,266.799 367.399 L 267.737 368.397 276.283 363.985 L 284.828 359.572 292.049 363.286 C 297.554 366.117,299.363 367.237,299.663 367.999 C 301.404 372.428,303.934 371.234,309.408 363.400 C 310.484 361.860,311.979 359.835,312.731 358.899 L 314.097 357.199 316.068 360.060 C 317.152 361.633,318.406 363.388,318.854 363.960 C 319.303 364.532,320.569 366.260,321.668 367.800 C 325.648 373.378,328.828 373.035,330.934 366.800 C 332.883 361.032,335.251 355.016,335.676 354.753 C 335.912 354.607,338.196 354.181,340.752 353.807 C 343.309 353.432,346.390 352.887,347.600 352.596 C 348.810 352.305,350.790 351.951,352.000 351.809 C 359.603 350.919,358.205 349.252,346.400 345.131 C 336.003 341.501,336.775 342.088,336.211 337.400 C 335.599 332.323,335.217 332.119,329.919 334.029 C 325.680 335.558,325.673 335.554,326.958 332.339 C 332.431 318.640,332.594 315.502,327.797 316.221 C 326.019 316.488,325.977 316.467,322.565 313.571 L 319.126 310.651 319.352 308.625 C 320.691 296.618,320.412 296.286,312.975 301.041 M228.400 362.400 C 228.400 362.620,228.040 362.800,227.600 362.800 C 226.654 362.800,226.565 363.422,227.392 364.249 C 227.852 364.709,228.295 364.756,229.365 364.461 C 230.125 364.251,230.840 364.173,230.954 364.287 C 231.341 364.674,232.479 363.184,232.251 362.590 C 231.992 361.912,228.400 361.736,228.400 362.400 " stroke="none" fill="#f89b11" fill-rule="evenodd"></path><path id="path1" d="M227.732 41.351 C 225.904 42.888,225.086 45.227,224.987 49.200 C 224.940 51.070,224.703 53.095,224.461 53.700 C 223.872 55.168,224.274 56.942,225.444 58.042 C 226.037 58.599,226.400 59.392,226.400 60.132 C 226.400 61.981,228.128 63.947,230.019 64.249 C 230.889 64.388,231.600 64.718,231.600 64.981 C 231.600 65.693,233.344 67.200,234.169 67.200 C 234.692 67.200,234.810 67.011,234.605 66.500 C 233.365 63.408,232.933 60.760,233.449 59.416 C 233.999 57.984,240.800 55.886,240.800 57.148 C 240.800 57.397,240.539 57.600,240.220 57.600 C 239.901 57.600,239.494 57.860,239.317 58.177 C 239.139 58.494,238.586 58.905,238.088 59.089 C 237.243 59.402,237.225 59.476,237.821 60.212 C 238.172 60.645,238.345 60.775,238.206 60.500 C 238.067 60.225,238.143 60.000,238.376 60.000 C 238.609 60.000,238.800 60.368,238.800 60.818 C 238.800 61.933,240.556 63.608,241.682 63.566 C 242.492 63.535,242.467 63.491,241.462 63.190 C 238.409 62.275,238.517 57.546,241.589 57.613 C 243.501 57.655,245.048 61.623,243.400 62.255 C 243.070 62.382,242.800 62.686,242.800 62.932 C 242.800 63.177,243.188 62.990,243.662 62.516 C 244.981 61.197,244.763 59.260,243.142 57.900 C 242.320 57.211,242.049 56.782,242.415 56.751 C 245.258 56.515,245.286 56.528,245.814 58.307 C 246.760 61.498,246.839 61.550,247.471 59.400 C 247.794 58.300,248.155 56.815,248.273 56.100 C 248.525 54.574,248.921 54.466,249.777 55.689 C 250.613 56.883,250.563 58.369,249.652 59.374 C 248.777 60.339,248.125 65.000,248.928 64.545 C 249.967 63.958,250.800 63.045,250.800 62.496 C 250.800 62.177,251.250 61.381,251.800 60.727 C 252.350 60.073,252.920 59.057,253.066 58.469 C 253.212 57.881,253.684 56.922,254.114 56.337 C 255.283 54.748,254.162 49.771,252.141 47.578 C 251.624 47.016,251.200 46.366,251.200 46.133 C 251.200 44.890,249.023 43.539,247.215 43.661 C 245.970 43.745,245.064 43.558,244.331 43.066 C 243.644 42.605,242.715 42.393,241.739 42.474 C 240.589 42.569,239.975 42.375,239.230 41.682 C 238.418 40.926,237.851 40.777,236.022 40.840 C 234.800 40.883,232.714 40.780,231.388 40.611 C 229.144 40.326,228.888 40.378,227.732 41.351 M234.577 58.967 C 234.150 59.279,233.936 59.669,234.101 59.834 C 234.265 59.999,234.400 59.923,234.400 59.667 C 234.400 59.410,234.951 59.200,235.624 59.200 C 236.337 59.200,236.744 59.033,236.600 58.800 C 236.253 58.239,235.487 58.302,234.577 58.967 M256.600 76.377 C 257.480 76.529,258.650 76.775,259.200 76.923 C 260.001 77.139,259.962 77.077,259.000 76.614 C 258.340 76.296,257.170 76.050,256.400 76.068 L 255.000 76.100 256.600 76.377 M220.300 86.229 C 218.805 87.040,218.896 87.378,220.400 86.600 C 221.060 86.259,221.600 85.894,221.600 85.790 C 221.600 85.532,221.557 85.547,220.300 86.229 M217.200 88.000 C 216.430 88.422,215.944 88.774,216.120 88.783 C 216.544 88.805,218.800 87.632,218.800 87.390 C 218.800 87.128,218.777 87.137,217.200 88.000 M222.780 90.439 C 222.320 91.340,222.013 92.146,222.097 92.230 C 222.181 92.314,222.641 91.576,223.119 90.591 C 224.209 88.347,223.915 88.215,222.780 90.439 M208.600 92.437 C 207.060 93.283,205.940 93.980,206.111 93.987 C 206.632 94.009,211.124 91.646,211.394 91.209 C 211.706 90.705,211.938 90.603,208.600 92.437 M200.400 96.600 C 199.410 97.130,198.742 97.572,198.916 97.582 C 199.341 97.606,202.400 96.034,202.400 95.792 C 202.400 95.527,202.417 95.520,200.400 96.600 M189.901 101.565 C 189.076 101.950,188.266 102.404,188.101 102.575 C 187.770 102.915,190.376 101.886,191.496 101.234 C 192.628 100.575,191.535 100.802,189.901 101.565 M286.000 101.332 C 286.000 101.483,286.540 102.352,287.200 103.263 C 287.860 104.175,288.395 104.758,288.389 104.560 C 288.376 104.137,286.000 100.927,286.000 101.332 M217.644 103.244 C 217.398 103.951,217.266 104.600,217.352 104.685 C 217.438 104.771,217.709 104.262,217.956 103.556 C 218.202 102.849,218.334 102.200,218.248 102.115 C 218.162 102.029,217.891 102.538,217.644 103.244 M162.004 106.451 C 157.982 106.916,157.462 107.230,161.200 106.936 C 164.713 106.660,168.147 106.083,166.200 106.096 C 165.540 106.100,163.652 106.260,162.004 106.451 M155.700 107.476 C 156.085 107.576,156.715 107.576,157.100 107.476 C 157.485 107.375,157.170 107.293,156.400 107.293 C 155.630 107.293,155.315 107.375,155.700 107.476 M151.700 107.876 C 152.085 107.976,152.715 107.976,153.100 107.876 C 153.485 107.775,153.170 107.693,152.400 107.693 C 151.630 107.693,151.315 107.775,151.700 107.876 M266.399 109.985 C 267.241 112.134,268.287 114.130,267.874 112.800 C 267.398 111.267,266.243 108.560,265.911 108.200 C 265.709 107.980,265.928 108.783,266.399 109.985 M213.354 118.177 C 213.232 118.494,213.203 119.079,213.289 119.477 C 213.387 119.928,213.524 119.712,213.654 118.900 C 213.871 117.538,213.730 117.196,213.354 118.177 M142.981 118.369 C 143.236 118.782,146.012 120.122,146.208 119.926 C 146.286 119.847,145.546 119.390,144.562 118.909 C 143.579 118.429,142.867 118.185,142.981 118.369 M203.300 120.276 C 203.685 120.376,204.315 120.376,204.700 120.276 C 205.085 120.175,204.770 120.093,204.000 120.093 C 203.230 120.093,202.915 120.175,203.300 120.276 M298.044 121.209 C 298.300 121.974,298.670 122.776,298.865 122.991 C 299.061 123.206,299.012 122.756,298.756 121.991 C 298.500 121.226,298.130 120.424,297.935 120.209 C 297.739 119.994,297.788 120.444,298.044 121.209 M270.822 120.800 C 270.836 121.396,272.747 125.238,272.782 124.740 C 272.792 124.597,272.352 123.517,271.804 122.340 C 271.256 121.163,270.814 120.470,270.822 120.800 M158.400 122.798 C 159.388 123.116,163.089 123.335,162.767 123.056 C 162.675 122.977,161.430 122.814,160.000 122.694 C 158.440 122.563,157.800 122.605,158.400 122.798 M180.800 123.275 C 178.930 123.477,174.160 123.568,170.200 123.479 C 164.408 123.348,163.626 123.388,166.200 123.683 C 169.563 124.068,181.985 123.773,185.400 123.227 C 188.351 122.755,185.338 122.786,180.800 123.275 M299.334 132.400 C 299.334 134.050,299.405 134.725,299.491 133.900 C 299.578 133.075,299.578 131.725,299.491 130.900 C 299.405 130.075,299.334 130.750,299.334 132.400 M276.000 130.583 C 276.000 130.743,276.360 131.331,276.800 131.891 C 277.240 132.450,277.600 132.777,277.600 132.617 C 277.600 132.457,277.240 131.869,276.800 131.309 C 276.360 130.750,276.000 130.423,276.000 130.583 M276.378 135.900 C 275.566 138.122,275.546 138.207,275.922 137.800 C 276.360 137.325,277.242 134.800,276.969 134.800 C 276.865 134.800,276.599 135.295,276.378 135.900 M298.033 140.233 C 297.775 141.259,297.639 142.172,297.731 142.264 C 297.822 142.356,298.109 141.592,298.367 140.567 C 298.625 139.541,298.761 138.628,298.669 138.536 C 298.578 138.444,298.291 139.208,298.033 140.233 M271.244 150.244 C 270.780 151.724,270.470 153.004,270.556 153.089 C 270.641 153.175,271.091 152.035,271.556 150.556 C 272.020 149.076,272.330 147.796,272.244 147.711 C 272.159 147.625,271.709 148.765,271.244 150.244 M266.796 164.460 C 266.545 165.417,266.067 167.158,265.733 168.330 C 265.399 169.501,265.200 170.533,265.290 170.624 C 265.381 170.714,265.952 169.065,266.560 166.960 C 267.168 164.855,267.573 163.039,267.459 162.926 C 267.346 162.812,267.047 163.502,266.796 164.460 M278.377 174.300 C 274.820 178.153,274.258 178.800,274.473 178.800 C 274.599 178.800,275.910 177.450,277.387 175.800 C 278.864 174.150,280.002 172.800,279.917 172.800 C 279.832 172.800,279.139 173.475,278.377 174.300 M212.006 176.788 C 211.767 177.235,210.408 182.263,208.987 187.960 C 201.249 218.980,199.031 244.832,202.358 265.200 C 203.226 270.512,205.289 281.469,206.426 286.800 C 207.106 289.990,208.176 295.030,208.803 298.000 C 211.242 309.550,214.954 325.167,218.975 340.800 C 223.797 359.547,224.667 362.607,225.142 362.502 C 225.386 362.449,227.388 362.287,229.593 362.142 C 231.797 361.998,233.606 361.772,233.612 361.640 C 233.619 361.508,233.799 360.053,234.013 358.407 C 234.399 355.433,234.636 353.057,235.811 340.400 C 236.147 336.770,236.686 331.280,237.008 328.200 C 237.886 319.800,238.348 315.237,239.005 308.502 C 239.332 305.148,239.633 302.268,239.676 302.102 C 239.760 301.768,239.680 301.372,237.952 293.600 C 237.292 290.630,236.570 287.868,236.349 287.462 C 236.127 287.056,235.787 285.796,235.592 284.662 C 235.398 283.528,234.787 280.440,234.235 277.800 C 233.683 275.160,233.129 272.370,233.004 271.600 C 232.879 270.830,232.609 269.210,232.406 268.000 C 232.202 266.790,231.922 264.994,231.784 264.008 C 231.647 263.023,231.467 262.109,231.386 261.977 C 231.223 261.713,230.443 257.019,230.193 254.800 C 229.936 252.509,229.246 245.578,229.019 243.000 C 228.548 237.652,228.424 235.996,228.150 231.400 C 227.993 228.760,227.825 226.150,227.778 225.600 C 227.543 222.890,227.099 206.645,227.009 197.500 L 226.908 187.200 228.826 187.200 C 230.423 187.200,230.775 187.335,230.925 188.006 C 231.076 188.677,231.097 188.660,231.053 187.906 C 231.004 187.069,230.756 186.979,227.800 186.729 C 219.721 186.046,216.709 184.309,213.818 178.662 C 212.574 176.234,212.400 176.053,212.006 176.788 M280.800 178.576 C 280.800 178.893,280.980 179.264,281.200 179.400 C 281.420 179.536,281.600 179.277,281.600 178.824 C 281.600 178.371,281.420 178.000,281.200 178.000 C 280.980 178.000,280.800 178.259,280.800 178.576 M271.188 181.900 L 268.600 184.600 271.300 182.012 C 272.785 180.588,274.000 179.373,274.000 179.312 C 274.000 179.017,273.593 179.392,271.188 181.900 M262.454 180.666 C 262.399 181.548,264.358 183.384,266.400 184.364 C 267.548 184.915,267.193 184.612,264.441 182.693 C 263.568 182.085,262.776 181.185,262.681 180.693 C 262.510 179.808,262.508 179.807,262.454 180.666 M274.400 182.240 C 272.970 182.965,271.930 183.567,272.089 183.579 C 272.649 183.620,276.701 181.683,276.972 181.245 C 277.124 181.000,277.192 180.827,277.124 180.861 C 277.056 180.894,275.830 181.515,274.400 182.240 M270.159 184.505 C 271.772 189.685,270.182 192.962,266.699 191.638 C 265.925 191.344,265.644 191.438,265.208 192.138 C 264.732 192.904,264.741 192.943,265.291 192.488 C 265.706 192.145,266.460 192.064,267.572 192.242 C 270.786 192.756,272.552 187.825,270.362 184.451 C 269.985 183.871,269.963 183.876,270.159 184.505 M253.600 186.838 C 251.950 186.979,249.106 187.119,247.280 187.148 C 244.336 187.194,241.600 187.904,241.600 188.621 C 241.600 188.731,242.131 188.546,242.780 188.210 C 243.520 187.827,245.123 187.588,247.080 187.568 C 248.796 187.551,251.696 187.412,253.525 187.260 C 257.422 186.936,257.784 187.064,257.216 188.559 C 256.987 189.160,256.812 189.955,256.827 190.326 C 256.846 190.813,257.948 187.970,257.994 187.314 C 258.027 186.842,256.046 186.628,253.600 186.838 M236.200 191.200 C 234.192 192.130,233.240 192.168,231.989 191.368 L 231.000 190.736 231.944 191.568 C 233.166 192.644,234.567 192.596,236.800 191.400 C 238.915 190.267,238.508 190.131,236.200 191.200 M259.100 192.235 C 260.255 192.778,261.201 193.352,261.202 193.511 C 261.203 193.670,261.878 193.821,262.702 193.847 L 264.200 193.894 262.800 193.436 C 262.030 193.185,260.555 192.579,259.522 192.090 C 258.489 191.600,257.499 191.211,257.322 191.224 C 257.145 191.237,257.945 191.692,259.100 192.235 M281.150 202.000 C 280.971 203.428,281.045 204.800,281.300 204.800 C 281.465 204.800,281.600 204.080,281.600 203.200 C 281.600 201.785,281.283 200.939,281.150 202.000 M280.836 210.400 C 280.465 212.831,280.468 213.292,280.850 212.910 C 281.075 212.685,281.184 211.894,281.093 211.151 C 281.002 210.408,280.887 210.070,280.836 210.400 M280.493 218.800 C 280.493 219.570,280.575 219.885,280.676 219.500 C 280.776 219.115,280.776 218.485,280.676 218.100 C 280.575 217.715,280.493 218.030,280.493 218.800 M279.969 224.100 C 279.716 224.928,279.746 225.600,280.035 225.600 C 280.236 225.600,280.400 225.240,280.400 224.800 C 280.400 224.157,280.101 223.671,279.969 224.100 M279.430 231.067 C 279.289 231.434,279.360 231.920,279.587 232.147 C 279.871 232.431,280.000 232.223,280.000 231.480 C 280.000 230.246,279.800 230.101,279.430 231.067 M279.049 236.215 C 278.912 236.573,278.822 237.616,278.850 238.533 C 278.898 240.131,278.913 240.110,279.218 238.002 C 279.547 235.734,279.485 235.081,279.049 236.215 M278.520 244.400 C 278.520 245.610,278.595 246.105,278.687 245.500 C 278.778 244.895,278.778 243.905,278.687 243.300 C 278.595 242.695,278.520 243.190,278.520 244.400 M277.876 249.692 C 277.744 251.291,277.560 252.960,277.468 253.400 C 277.376 253.840,277.433 254.560,277.594 255.000 C 277.770 255.482,278.004 254.082,278.183 251.474 C 278.347 249.094,278.399 247.065,278.299 246.965 C 278.199 246.865,278.008 248.092,277.876 249.692 M277.293 257.600 C 277.293 258.370,277.375 258.685,277.476 258.300 C 277.576 257.915,277.576 257.285,277.476 256.900 C 277.375 256.515,277.293 256.830,277.293 257.600 M276.767 261.100 C 276.748 261.265,276.688 261.805,276.634 262.300 C 276.579 262.795,276.684 263.200,276.867 263.200 C 277.050 263.200,277.200 262.660,277.200 262.000 C 277.200 260.962,276.860 260.256,276.767 261.100 M274.273 287.353 C 274.123 287.745,274.011 288.366,274.025 288.733 C 274.042 289.175,274.181 289.074,274.437 288.434 C 274.649 287.903,274.761 287.282,274.685 287.054 C 274.609 286.827,274.424 286.961,274.273 287.353 M273.232 297.326 C 273.214 298.606,273.055 299.956,272.877 300.326 C 272.699 300.697,272.665 301.630,272.801 302.400 C 272.989 303.462,273.127 302.866,273.370 299.935 C 273.546 297.809,273.594 295.829,273.477 295.535 C 273.359 295.241,273.249 296.047,273.232 297.326 M272.299 304.234 C 272.058 304.475,272.312 306.445,272.624 306.758 C 272.721 306.854,272.800 306.273,272.800 305.467 C 272.800 303.988,272.727 303.807,272.299 304.234 M241.238 307.600 C 241.195 308.369,242.010 311.324,242.210 311.124 C 242.293 311.040,242.116 310.079,241.816 308.986 C 241.517 307.894,241.256 307.270,241.238 307.600 M271.969 308.300 C 271.953 308.465,271.879 308.914,271.805 309.298 C 271.731 309.683,271.835 310.098,272.036 310.222 C 272.236 310.346,272.400 309.897,272.400 309.224 C 272.400 308.172,272.057 307.437,271.969 308.300 M271.219 316.000 C 270.868 316.949,270.893 318.513,271.249 317.887 C 271.471 317.496,271.573 316.866,271.473 316.487 C 271.374 316.109,271.260 315.890,271.219 316.000 M246.056 326.400 C 246.056 326.730,246.211 327.360,246.400 327.800 C 246.617 328.304,246.744 328.378,246.744 328.000 C 246.744 327.670,246.589 327.040,246.400 326.600 C 246.183 326.096,246.056 326.022,246.056 326.400 M246.868 329.400 C 246.862 329.840,247.011 330.560,247.200 331.000 C 247.638 332.019,247.638 330.968,247.200 329.600 C 246.943 328.796,246.877 328.757,246.868 329.400 M269.200 334.906 C 269.200 335.037,268.844 337.992,268.408 341.472 C 267.973 344.953,267.425 349.510,267.191 351.600 C 266.957 353.690,266.666 356.210,266.545 357.200 C 266.424 358.190,266.438 358.889,266.576 358.753 C 266.848 358.486,267.089 356.665,268.583 343.616 C 269.123 338.895,269.483 334.950,269.383 334.849 C 269.282 334.749,269.200 334.774,269.200 334.906 M251.351 345.790 C 251.807 347.419,252.252 348.681,252.340 348.594 C 252.560 348.373,251.136 343.208,250.797 342.998 C 250.645 342.904,250.894 344.161,251.351 345.790 M255.656 360.800 C 255.656 361.130,255.811 361.760,256.000 362.200 C 256.217 362.704,256.344 362.778,256.344 362.400 C 256.344 362.070,256.189 361.440,256.000 361.000 C 255.783 360.496,255.656 360.422,255.656 360.800 M256.402 363.624 C 256.401 363.966,256.664 364.596,256.987 365.024 C 257.751 366.034,257.759 365.596,257.002 364.146 C 256.674 363.516,256.404 363.281,256.402 363.624 M231.100 364.276 C 230.715 364.376,230.400 364.599,230.400 364.770 C 230.400 364.941,229.475 364.934,228.346 364.756 C 226.778 364.508,226.093 364.570,225.457 365.015 C 224.998 365.337,224.757 365.600,224.921 365.600 C 225.086 365.600,224.949 366.125,224.617 366.767 C 223.833 368.282,221.678 369.091,217.833 369.310 C 216.972 369.360,216.189 369.633,216.094 369.917 C 215.962 370.314,215.792 370.325,215.361 369.968 C 214.936 369.615,214.665 369.614,214.242 369.965 C 213.935 370.220,213.530 370.400,213.342 370.367 C 212.513 370.218,211.600 370.431,211.600 370.773 C 211.600 371.124,212.919 371.748,213.800 371.813 C 214.020 371.830,215.151 372.078,216.313 372.365 C 217.476 372.652,218.772 372.796,219.194 372.686 C 219.616 372.575,220.017 372.650,220.084 372.852 C 220.580 374.339,236.141 373.434,236.544 371.894 C 236.904 370.515,235.998 367.261,234.871 365.888 C 233.261 363.928,232.946 363.793,231.100 364.276 M260.800 364.813 C 260.154 365.029,260.580 365.066,262.000 364.919 C 263.210 364.794,264.275 364.626,264.367 364.546 C 264.687 364.265,261.791 364.483,260.800 364.813 M226.158 365.268 C 225.959 365.589,226.093 365.650,226.585 365.461 C 226.979 365.310,227.549 365.391,227.851 365.642 C 228.457 366.145,228.609 368.000,228.044 368.000 C 227.849 368.000,227.714 368.296,227.744 368.657 C 227.775 369.018,227.530 369.392,227.200 369.487 C 226.843 369.591,226.762 369.527,227.000 369.330 C 227.220 369.149,227.432 368.730,227.471 368.400 C 227.510 368.070,227.634 367.399,227.747 366.908 C 227.986 365.862,227.387 365.347,226.646 365.962 C 226.360 366.199,225.979 366.260,225.799 366.097 C 225.619 365.933,225.568 365.980,225.686 366.200 C 225.804 366.420,225.755 366.960,225.578 367.400 C 225.276 368.150,225.254 368.142,225.228 367.274 C 225.200 366.355,225.835 364.800,226.238 364.800 C 226.353 364.800,226.317 365.011,226.158 365.268 M233.827 365.370 C 234.337 365.880,235.280 367.776,235.366 368.467 C 235.385 368.613,235.535 368.868,235.700 369.033 C 236.210 369.544,236.031 371.076,235.400 371.600 C 234.896 372.019,234.564 371.927,234.900 371.461 C 234.955 371.385,234.766 371.041,234.481 370.697 C 234.141 370.288,234.103 369.983,234.371 369.818 C 234.596 369.679,234.717 369.026,234.641 368.366 C 234.466 366.863,234.002 366.338,233.994 367.633 C 233.989 368.374,233.902 368.465,233.622 368.022 C 233.402 367.674,233.401 367.172,233.620 366.764 C 234.024 366.008,233.520 365.414,232.200 365.089 C 231.494 364.916,231.509 364.887,232.329 364.846 C 232.839 364.821,233.514 365.056,233.827 365.370 M231.491 365.651 C 231.825 365.985,231.826 366.290,231.495 366.819 C 231.180 367.324,231.173 367.692,231.470 368.068 C 231.818 368.506,231.895 370.846,231.587 371.600 C 231.542 371.710,231.532 371.952,231.565 372.138 C 231.661 372.676,230.668 372.205,230.473 371.619 C 230.373 371.319,230.481 371.203,230.722 371.352 C 230.987 371.515,231.135 371.181,231.114 370.465 C 231.096 369.833,231.209 369.109,231.364 368.858 C 231.520 368.606,231.434 368.400,231.174 368.400 C 230.862 368.400,230.781 367.995,230.937 367.216 C 231.076 366.521,230.988 365.916,230.725 365.754 C 230.470 365.596,230.387 365.655,230.533 365.891 C 230.674 366.119,230.437 366.753,230.007 367.300 C 229.577 367.847,229.294 368.648,229.377 369.081 C 229.503 369.736,228.907 371.414,228.766 370.800 C 228.458 369.451,228.644 368.304,229.262 367.744 C 229.668 367.377,230.000 366.800,230.000 366.462 C 230.000 365.980,229.868 366.015,229.389 366.624 C 228.786 367.390,228.780 367.389,228.889 366.600 C 228.982 365.933,229.669 365.448,230.820 365.240 C 230.941 365.218,231.243 365.403,231.491 365.651 M265.000 366.585 C 264.780 366.650,263.852 366.928,262.937 367.203 C 261.696 367.577,260.955 367.593,260.021 367.267 C 258.612 366.776,257.200 367.712,257.200 369.138 C 257.200 370.699,256.298 371.099,248.895 372.827 C 244.475 373.859,243.613 374.565,246.202 375.035 C 246.808 375.145,247.505 375.272,247.751 375.317 C 247.998 375.363,248.186 374.995,248.168 374.500 C 248.129 373.399,249.363 373.262,249.968 374.300 C 250.220 374.732,250.380 374.800,250.388 374.476 C 250.395 374.188,250.580 374.064,250.800 374.200 C 251.030 374.342,251.203 373.970,251.206 373.324 C 251.211 372.485,251.305 372.347,251.580 372.781 C 251.782 373.100,251.840 373.536,251.708 373.749 C 251.570 373.972,251.751 374.028,252.134 373.881 C 252.500 373.740,252.800 373.778,252.800 373.966 C 252.800 374.316,251.717 374.749,250.065 375.061 C 249.520 375.163,249.231 375.074,249.372 374.846 C 249.504 374.631,249.467 374.365,249.290 374.255 C 249.112 374.145,248.940 374.403,248.908 374.828 C 248.847 375.638,248.950 375.683,251.200 375.825 C 262.145 376.518,268.817 375.736,269.231 373.713 C 269.766 371.095,266.778 366.060,265.000 366.585 M233.200 368.853 C 233.200 369.018,233.022 369.263,232.805 369.397 C 232.584 369.534,232.507 369.385,232.632 369.061 C 232.754 368.742,232.662 368.362,232.427 368.217 C 232.192 368.072,232.006 367.738,232.013 367.476 C 232.026 366.975,233.200 368.336,233.200 368.853 M263.603 368.598 C 263.791 368.482,264.058 368.570,264.196 368.793 C 264.334 369.017,264.212 369.203,263.924 369.206 C 263.507 369.211,263.510 369.282,263.943 369.556 C 264.301 369.783,264.342 369.989,264.063 370.161 C 263.830 370.305,263.445 370.057,263.206 369.611 C 262.966 369.162,262.376 368.806,261.886 368.813 C 261.021 368.825,261.018 368.839,261.776 369.413 C 262.204 369.736,262.375 370.000,262.156 370.000 C 261.681 370.000,260.800 369.169,260.800 368.720 C 260.800 368.544,261.250 368.400,261.800 368.400 C 262.350 368.400,262.821 368.175,262.846 367.900 C 262.872 367.625,262.976 367.717,263.077 368.105 C 263.178 368.493,263.414 368.715,263.603 368.598 M266.239 368.576 C 266.097 369.356,266.196 369.501,266.731 369.301 C 267.320 369.080,267.332 369.133,266.837 369.742 C 266.410 370.266,266.386 370.546,266.737 370.897 C 267.317 371.477,267.346 372.137,266.775 371.785 C 266.542 371.640,266.186 371.088,265.984 370.558 C 265.783 370.028,265.479 369.640,265.309 369.697 C 265.139 369.754,264.955 369.665,264.900 369.500 C 264.845 369.335,264.926 369.213,265.080 369.230 C 265.234 369.246,265.499 368.886,265.667 368.430 C 266.089 367.291,266.455 367.384,266.239 368.576 M226.211 368.766 C 226.077 369.188,226.158 369.650,226.390 369.794 C 226.623 369.938,226.708 370.226,226.579 370.434 C 226.450 370.643,226.174 370.708,225.966 370.579 C 225.757 370.450,225.683 370.190,225.800 370.000 C 225.917 369.810,225.826 369.539,225.597 369.398 C 225.368 369.256,225.206 369.289,225.237 369.470 C 225.375 370.264,225.160 370.464,224.636 370.030 C 224.240 369.701,223.992 369.689,223.806 369.990 C 223.660 370.227,223.756 370.370,224.020 370.310 C 224.284 370.249,224.575 370.402,224.666 370.649 C 224.762 370.907,224.442 371.077,223.916 371.049 C 223.310 371.017,223.015 371.214,223.044 371.633 C 223.069 371.982,222.844 372.267,222.544 372.267 C 221.846 372.267,221.857 371.942,222.587 370.976 C 223.380 369.929,223.347 369.463,222.500 369.758 C 221.916 369.961,221.929 369.902,222.576 369.401 C 223.003 369.070,223.453 368.935,223.576 369.100 C 224.009 369.681,224.712 369.560,225.414 368.784 C 226.307 367.797,226.520 367.793,226.211 368.766 M230.592 369.512 C 230.646 370.144,230.445 370.997,230.145 371.407 C 229.614 372.134,229.330 371.711,229.604 370.600 C 229.658 370.380,229.751 369.750,229.811 369.200 C 229.959 367.847,229.965 367.832,230.247 368.114 C 230.383 368.250,230.539 368.879,230.592 369.512 M259.250 368.400 C 259.278 368.620,259.334 369.025,259.376 369.300 C 259.503 370.137,259.122 370.518,258.733 369.943 C 258.436 369.503,258.388 369.514,258.481 370.000 C 258.543 370.330,258.461 370.645,258.297 370.700 C 258.134 370.755,258.000 370.710,258.000 370.600 C 258.000 370.490,258.000 370.029,258.000 369.576 C 258.000 369.123,258.178 368.863,258.395 368.997 C 258.622 369.137,258.689 368.977,258.553 368.621 C 258.422 368.279,258.514 368.000,258.757 368.000 C 259.001 368.000,259.223 368.180,259.250 368.400 M261.788 372.279 C 261.796 373.187,261.640 373.548,261.296 373.416 C 260.938 373.278,260.851 373.552,260.994 374.367 C 261.192 375.490,261.164 375.509,259.498 375.406 C 257.319 375.272,257.270 375.251,258.076 374.781 C 258.460 374.557,258.686 374.045,258.599 373.594 C 258.515 373.157,258.616 372.800,258.823 372.800 C 259.030 372.800,259.200 372.631,259.200 372.425 C 259.200 372.219,258.840 372.077,258.400 372.110 C 257.960 372.143,257.600 372.402,257.600 372.685 C 257.600 372.968,257.420 373.200,257.200 373.200 C 256.734 373.200,256.715 373.086,257.043 372.233 C 257.176 371.885,257.727 371.600,258.266 371.600 C 258.806 371.600,259.149 371.440,259.028 371.245 C 258.907 371.050,259.064 370.679,259.376 370.420 C 259.689 370.160,259.870 369.555,259.779 369.074 C 259.645 368.369,259.822 368.465,260.695 369.575 C 261.365 370.428,261.780 371.455,261.788 372.279 M234.083 369.677 C 233.731 370.029,233.738 370.287,234.110 370.747 C 234.499 371.228,234.497 371.292,234.100 371.053 C 233.825 370.888,233.600 370.907,233.600 371.096 C 233.600 371.285,233.825 371.696,234.100 372.009 C 234.375 372.323,234.199 372.244,233.709 371.836 C 233.220 371.427,232.906 370.953,233.012 370.781 C 233.118 370.609,232.979 370.377,232.702 370.266 C 232.382 370.137,232.438 370.052,232.857 370.032 C 233.219 370.014,233.628 369.704,233.767 369.343 C 233.905 368.981,234.138 368.804,234.283 368.949 C 234.428 369.095,234.338 369.422,234.083 369.677 M221.528 370.113 C 221.762 370.396,221.810 370.861,221.633 371.147 C 221.394 371.533,221.257 371.460,221.100 370.863 C 220.824 369.806,219.368 369.985,219.480 371.062 C 219.535 371.583,219.310 371.829,218.780 371.829 C 218.067 371.829,217.826 371.500,217.953 370.700 C 217.979 370.535,217.685 370.376,217.300 370.347 C 216.534 370.290,218.881 369.737,220.251 369.653 C 220.719 369.624,221.294 369.831,221.528 370.113 M260.595 370.800 C 260.836 371.778,260.827 371.783,260.190 371.000 C 259.744 370.453,259.572 370.390,259.644 370.800 C 259.783 371.580,259.207 374.076,258.760 374.633 C 258.543 374.904,258.627 375.067,258.984 375.067 C 259.298 375.067,259.544 374.962,259.530 374.833 C 259.431 373.909,259.665 373.193,260.000 373.400 C 260.220 373.536,260.400 373.356,260.400 373.000 C 260.400 372.644,260.580 372.464,260.800 372.600 C 261.331 372.928,261.305 371.167,260.768 370.400 C 260.444 369.937,260.404 370.029,260.595 370.800 M264.610 370.900 C 264.385 371.732,264.412 371.725,264.973 370.800 L 265.580 369.800 265.460 371.000 C 265.394 371.660,265.011 372.830,264.608 373.600 C 263.897 374.960,263.897 374.983,264.615 374.400 C 265.192 373.931,265.280 373.923,265.015 374.362 C 264.778 374.755,264.824 374.833,265.165 374.621 C 265.434 374.455,265.548 374.042,265.418 373.703 C 265.226 373.202,265.291 373.177,265.767 373.573 C 266.737 374.378,266.089 375.075,264.397 375.046 L 262.831 375.018 263.657 374.139 C 264.139 373.626,264.357 373.054,264.180 372.768 C 263.985 372.453,264.042 372.379,264.338 372.562 C 265.019 372.983,264.900 372.181,264.195 371.596 C 263.735 371.214,263.699 370.963,264.044 370.547 C 264.701 369.756,264.888 369.873,264.610 370.900 M216.700 370.934 C 216.975 371.134,217.200 371.478,217.200 371.698 C 217.200 371.942,216.991 371.924,216.663 371.652 C 216.368 371.407,216.008 371.325,215.863 371.470 C 215.718 371.615,215.597 371.478,215.594 371.167 C 215.589 370.700,215.519 370.706,215.200 371.200 C 214.983 371.536,214.810 371.596,214.806 371.337 C 214.803 371.067,214.427 370.957,213.900 371.072 C 213.171 371.232,213.114 371.186,213.600 370.832 C 214.281 370.335,215.953 370.390,216.700 370.934 M220.585 371.167 C 220.517 371.515,220.445 371.890,220.424 372.000 C 220.379 372.245,219.615 371.092,219.606 370.767 C 219.603 370.638,219.850 370.533,220.155 370.533 C 220.460 370.533,220.654 370.818,220.585 371.167 M225.942 371.870 C 225.354 372.578,224.681 371.976,225.034 371.057 C 225.237 370.528,225.416 370.481,225.852 370.843 C 226.283 371.201,226.304 371.434,225.942 371.870 M268.452 371.300 C 268.639 373.115,268.595 374.000,268.319 374.000 C 268.143 374.000,268.000 373.820,268.000 373.600 C 268.000 373.380,267.801 373.200,267.557 373.200 C 267.314 373.200,267.216 373.464,267.340 373.787 C 267.464 374.110,267.418 374.465,267.238 374.577 C 266.958 374.749,266.930 374.130,267.149 372.657 C 267.177 372.469,267.470 372.418,267.800 372.545 C 268.508 372.816,268.546 372.620,267.986 371.574 C 267.700 371.040,267.700 370.800,267.986 370.800 C 268.214 370.800,268.423 371.025,268.452 371.300 M229.081 372.431 L 229.161 373.400 228.820 372.400 C 228.528 371.541,228.470 371.513,228.408 372.200 C 228.369 372.640,228.249 372.785,228.143 372.522 C 228.036 372.260,227.690 372.144,227.374 372.265 C 227.058 372.386,226.800 372.300,226.800 372.072 C 226.800 371.649,227.883 371.232,228.600 371.380 C 228.820 371.426,229.036 371.899,229.081 372.431 M256.409 371.984 C 256.178 372.415,256.013 372.910,256.042 373.084 C 256.178 373.900,255.935 374.229,255.195 374.229 C 254.753 374.229,254.442 374.074,254.505 373.884 C 254.568 373.695,254.780 373.566,254.975 373.597 C 255.170 373.629,255.562 373.102,255.845 372.427 C 256.129 371.752,256.466 371.200,256.595 371.200 C 256.723 371.200,256.639 371.553,256.409 371.984 M263.595 371.900 C 263.565 373.508,262.619 374.643,262.510 373.200 C 262.477 372.760,262.629 372.400,262.848 372.400 C 263.068 372.400,263.136 372.220,263.000 372.000 C 262.864 371.780,262.943 371.600,263.176 371.600 C 263.409 371.600,263.598 371.735,263.595 371.900 M266.622 372.035 C 266.769 372.274,266.714 372.646,266.499 372.861 C 266.243 373.117,266.032 372.966,265.891 372.426 C 265.664 371.558,266.162 371.291,266.622 372.035 M254.072 373.700 C 254.198 374.584,255.287 374.926,256.200 374.368 C 257.085 373.828,258.000 373.647,258.000 374.013 C 258.000 374.226,257.743 374.400,257.429 374.400 C 257.114 374.400,256.619 374.625,256.329 374.900 C 255.657 375.535,254.002 375.640,253.994 375.048 C 253.991 374.802,253.818 374.868,253.611 375.196 C 253.337 375.630,253.270 375.467,253.366 374.596 C 253.455 373.781,253.290 373.313,252.849 373.128 C 252.338 372.914,252.386 372.850,253.072 372.828 C 253.683 372.808,253.983 373.070,254.072 373.700 " stroke="none" fill="#242d76" fill-rule="evenodd"></path><path id="path2" d="M254.482 76.306 C 253.878 76.507,253.854 79.450,254.431 82.627 C 254.898 85.200,256.169 87.700,258.266 90.172 C 259.000 91.037,259.600 91.888,259.600 92.063 C 259.600 92.239,260.208 93.691,260.951 95.291 C 261.693 96.891,263.029 100.270,263.918 102.800 C 264.807 105.330,265.828 107.975,266.185 108.677 C 266.762 109.810,268.937 115.523,270.154 119.100 C 270.397 119.815,270.732 120.400,270.898 120.400 C 271.064 120.400,271.200 120.587,271.200 120.815 C 271.200 121.395,274.934 128.970,275.300 129.133 C 275.465 129.207,275.600 129.439,275.600 129.650 C 275.600 129.861,275.978 130.431,276.440 130.917 C 278.158 132.725,278.111 133.146,275.581 138.600 C 275.173 139.480,274.126 142.450,273.255 145.200 C 272.383 147.950,271.374 151.010,271.012 152.000 C 270.650 152.990,269.365 157.220,268.157 161.400 C 266.949 165.580,265.444 170.710,264.812 172.800 C 263.189 178.168,262.640 180.606,262.901 181.285 C 263.280 182.275,267.527 184.881,268.172 184.520 C 271.081 182.891,287.200 164.348,287.200 162.629 C 287.200 162.417,287.633 161.784,288.163 161.222 C 288.693 160.660,289.619 159.300,290.221 158.200 C 290.823 157.100,292.116 154.804,293.095 153.097 C 294.979 149.809,296.221 146.740,297.907 141.200 C 298.999 137.613,299.639 124.921,298.825 123.000 C 296.511 117.538,290.090 106.346,288.382 104.800 C 288.011 104.463,286.227 101.862,285.760 100.976 C 283.861 97.368,272.408 85.055,267.600 81.451 C 263.285 78.217,256.607 75.598,254.482 76.306 M225.394 83.646 C 224.517 84.111,222.787 85.114,221.548 85.873 C 219.048 87.407,214.457 89.795,204.000 95.004 C 186.456 103.742,186.695 103.640,182.485 104.195 C 172.887 105.460,170.160 105.780,169.600 105.708 C 169.270 105.665,168.460 105.799,167.800 106.005 C 166.736 106.336,146.101 108.800,144.388 108.800 C 143.734 108.800,143.435 110.645,143.068 116.969 C 142.753 122.390,173.621 125.448,191.664 121.784 C 197.525 120.594,203.244 120.000,208.842 120.000 C 213.123 120.000,213.200 119.984,213.200 119.080 C 213.200 118.574,213.357 117.989,213.549 117.780 C 213.741 117.571,214.213 116.050,214.599 114.400 C 215.694 109.709,217.560 103.357,218.574 100.868 C 219.082 99.621,220.167 96.890,220.983 94.800 C 221.800 92.710,223.515 89.155,224.795 86.900 C 226.075 84.645,227.092 82.800,227.055 82.800 C 227.018 82.800,226.271 83.181,225.394 83.646 M279.970 179.036 C 278.966 180.246,274.836 182.679,272.584 183.388 C 270.999 183.886,270.412 184.253,270.564 184.650 C 272.259 189.068,270.821 192.660,267.530 192.226 C 265.892 192.011,265.581 192.092,265.029 192.879 C 264.412 193.761,261.200 194.289,261.200 193.509 C 261.200 193.337,260.294 192.801,259.187 192.318 C 256.966 191.348,256.491 190.466,257.193 188.618 C 257.786 187.059,257.448 186.934,253.525 187.260 C 251.696 187.412,248.813 187.551,247.118 187.568 C 244.258 187.598,239.320 189.218,238.400 190.429 C 236.028 193.551,230.800 192.442,230.800 188.818 L 230.800 187.200 228.854 187.200 L 226.908 187.200 227.009 197.500 C 227.099 206.645,227.543 222.890,227.778 225.600 C 227.825 226.150,227.993 228.760,228.150 231.400 C 228.424 235.996,228.548 237.652,229.019 243.000 C 229.246 245.578,229.936 252.509,230.193 254.800 C 230.443 257.019,231.223 261.713,231.386 261.977 C 231.467 262.109,231.647 263.023,231.784 264.008 C 231.922 264.994,232.202 266.790,232.406 268.000 C 232.609 269.210,232.879 270.830,233.004 271.600 C 233.129 272.370,233.683 275.160,234.235 277.800 C 234.787 280.440,235.398 283.528,235.592 284.662 C 235.787 285.796,236.127 287.056,236.349 287.462 C 236.570 287.868,237.311 290.720,237.994 293.800 C 239.745 301.687,240.428 304.479,240.834 305.400 C 241.028 305.840,241.827 308.900,242.610 312.200 C 245.297 323.528,245.670 325.001,246.010 325.655 C 246.198 326.016,247.284 329.976,248.424 334.455 C 249.565 338.935,250.644 342.784,250.822 343.008 C 251.077 343.330,253.407 351.848,255.032 358.400 C 255.168 358.950,255.513 359.940,255.798 360.600 C 256.082 361.260,256.436 362.373,256.584 363.072 C 257.011 365.105,257.683 365.426,260.354 364.874 C 261.616 364.613,263.177 364.397,263.824 364.394 C 265.678 364.384,265.829 364.073,266.341 359.200 C 266.989 353.021,267.468 348.982,268.426 341.600 C 269.405 334.061,270.286 326.554,270.352 325.200 C 270.476 322.617,270.730 320.437,270.947 320.086 C 271.078 319.873,271.123 318.953,271.045 318.041 C 270.968 317.129,271.079 316.275,271.292 316.143 C 271.506 316.011,271.586 315.027,271.471 313.956 C 271.356 312.885,271.424 311.909,271.622 311.786 C 271.820 311.664,271.995 310.897,272.009 310.082 C 272.071 306.662,272.257 304.555,272.536 304.103 C 272.700 303.839,272.836 302.942,272.838 302.111 C 272.846 299.353,273.264 295.200,273.534 295.200 C 273.680 295.200,273.838 294.705,273.885 294.100 C 274.258 289.286,274.448 287.154,274.645 285.600 C 274.771 284.610,274.916 282.798,274.968 281.573 C 275.020 280.349,275.191 279.139,275.348 278.884 C 275.505 278.630,275.640 277.742,275.648 276.911 C 275.684 272.931,275.857 270.555,276.144 270.090 C 276.317 269.810,276.423 268.820,276.378 267.890 C 276.333 266.961,276.416 265.920,276.561 265.578 C 276.707 265.236,276.761 264.246,276.682 263.378 C 276.602 262.510,276.675 261.518,276.844 261.173 C 277.012 260.828,277.250 258.758,277.371 256.573 C 277.493 254.388,277.872 250.080,278.213 247.000 C 278.555 243.920,278.910 240.230,279.004 238.800 C 279.097 237.370,279.281 234.940,279.412 233.400 C 279.544 231.860,279.706 229.250,279.774 227.600 C 279.841 225.950,279.950 224.420,280.014 224.200 C 280.161 223.701,280.310 221.534,280.618 215.400 C 281.920 189.437,281.698 176.954,279.970 179.036 M225.483 364.650 C 225.358 364.776,225.363 365.160,225.496 365.505 C 225.634 365.865,225.568 366.027,225.340 365.887 C 225.098 365.737,225.017 366.137,225.132 366.920 C 225.291 367.998,225.365 368.073,225.610 367.399 C 225.769 366.960,225.804 366.420,225.686 366.200 C 225.568 365.980,225.619 365.933,225.799 366.097 C 225.979 366.260,226.360 366.199,226.646 365.962 C 227.387 365.347,227.986 365.862,227.747 366.908 C 227.634 367.399,227.510 368.070,227.471 368.400 C 227.432 368.730,227.220 369.149,227.000 369.330 C 226.762 369.527,226.843 369.591,227.200 369.487 C 227.530 369.392,227.775 369.018,227.744 368.657 C 227.714 368.296,227.849 368.000,228.044 368.000 C 228.609 368.000,228.457 366.145,227.851 365.642 C 227.549 365.391,226.979 365.310,226.585 365.461 C 226.114 365.642,225.962 365.585,226.141 365.296 C 226.432 364.825,225.865 364.268,225.483 364.650 M230.162 365.138 C 230.338 365.424,230.165 365.600,229.709 365.600 C 229.228 365.600,228.949 365.914,228.908 366.500 C 228.848 367.375,228.863 367.378,229.423 366.624 C 229.872 366.020,230.000 365.984,230.000 366.462 C 230.000 366.800,229.668 367.377,229.262 367.744 C 228.644 368.304,228.458 369.451,228.766 370.800 C 228.907 371.414,229.503 369.736,229.377 369.081 C 229.294 368.648,229.577 367.847,230.007 367.300 C 230.437 366.753,230.674 366.119,230.533 365.891 C 230.387 365.655,230.470 365.596,230.725 365.754 C 230.988 365.916,231.076 366.521,230.937 367.216 C 230.781 367.995,230.862 368.400,231.174 368.400 C 231.434 368.400,231.520 368.606,231.364 368.858 C 231.209 369.109,231.096 369.833,231.114 370.465 C 231.135 371.181,230.987 371.515,230.722 371.352 C 230.481 371.203,230.373 371.319,230.473 371.619 C 230.668 372.205,231.661 372.676,231.565 372.138 C 231.532 371.952,231.542 371.710,231.587 371.600 C 231.886 370.870,231.804 368.486,231.461 367.932 C 231.169 367.460,231.189 367.096,231.529 366.686 C 232.025 366.088,231.848 365.814,230.438 365.000 C 230.061 364.783,229.970 364.828,230.162 365.138 M232.200 365.089 C 233.520 365.414,234.024 366.008,233.620 366.764 C 233.401 367.172,233.402 367.674,233.622 368.022 C 233.902 368.465,233.989 368.374,233.994 367.633 C 234.002 366.338,234.466 366.863,234.641 368.366 C 234.717 369.026,234.596 369.679,234.371 369.818 C 234.103 369.983,234.141 370.288,234.481 370.697 C 234.766 371.041,234.955 371.385,234.900 371.461 C 234.564 371.927,234.896 372.019,235.400 371.600 C 236.031 371.076,236.210 369.544,235.700 369.033 C 235.535 368.868,235.385 368.613,235.366 368.467 C 235.135 366.623,233.591 364.783,232.329 364.846 C 231.509 364.887,231.494 364.916,232.200 365.089 M232.013 367.476 C 232.006 367.738,232.192 368.072,232.427 368.217 C 232.662 368.362,232.754 368.742,232.632 369.061 C 232.507 369.385,232.584 369.534,232.805 369.397 C 233.346 369.062,233.302 368.687,232.613 367.776 C 232.290 367.349,232.020 367.214,232.013 367.476 M262.846 367.900 C 262.821 368.175,262.350 368.400,261.800 368.400 C 261.250 368.400,260.800 368.544,260.800 368.720 C 260.800 369.169,261.681 370.000,262.156 370.000 C 262.375 370.000,262.204 369.736,261.776 369.413 C 261.018 368.839,261.021 368.825,261.886 368.813 C 262.376 368.806,262.966 369.162,263.206 369.611 C 263.445 370.057,263.830 370.305,264.063 370.161 C 264.342 369.989,264.301 369.783,263.943 369.556 C 263.510 369.282,263.507 369.211,263.924 369.206 C 264.212 369.203,264.334 369.017,264.196 368.793 C 264.058 368.570,263.791 368.482,263.603 368.598 C 263.414 368.715,263.178 368.493,263.077 368.105 C 262.976 367.717,262.872 367.625,262.846 367.900 M265.667 368.430 C 265.499 368.886,265.234 369.246,265.080 369.230 C 264.926 369.213,264.845 369.335,264.900 369.500 C 264.955 369.665,265.139 369.754,265.309 369.697 C 265.479 369.640,265.783 370.028,265.984 370.558 C 266.186 371.088,266.542 371.640,266.775 371.785 C 267.346 372.137,267.317 371.477,266.737 370.897 C 266.386 370.546,266.410 370.266,266.837 369.742 C 267.332 369.133,267.320 369.080,266.731 369.301 C 266.196 369.501,266.097 369.356,266.239 368.576 C 266.455 367.384,266.089 367.291,265.667 368.430 M225.414 368.784 C 224.712 369.560,224.009 369.681,223.576 369.100 C 223.453 368.935,223.003 369.070,222.576 369.401 C 221.929 369.902,221.916 369.961,222.500 369.758 C 223.347 369.463,223.380 369.929,222.587 370.976 C 221.857 371.942,221.846 372.267,222.544 372.267 C 222.844 372.267,223.069 371.982,223.044 371.633 C 223.015 371.214,223.310 371.017,223.916 371.049 C 224.442 371.077,224.762 370.907,224.666 370.649 C 224.575 370.402,224.284 370.249,224.020 370.310 C 223.756 370.370,223.660 370.227,223.806 369.990 C 223.992 369.689,224.240 369.701,224.636 370.030 C 225.160 370.464,225.375 370.264,225.237 369.470 C 225.206 369.289,225.368 369.256,225.597 369.398 C 225.826 369.539,225.917 369.810,225.800 370.000 C 225.683 370.190,225.757 370.450,225.966 370.579 C 226.174 370.708,226.450 370.643,226.579 370.434 C 226.708 370.226,226.623 369.938,226.390 369.794 C 226.158 369.650,226.077 369.188,226.211 368.766 C 226.520 367.793,226.307 367.797,225.414 368.784 M229.960 368.033 C 229.939 368.125,229.871 368.650,229.811 369.200 C 229.751 369.750,229.658 370.380,229.604 370.600 C 229.330 371.711,229.614 372.134,230.145 371.407 C 230.677 370.680,230.741 368.608,230.247 368.114 C 230.111 367.978,229.982 367.942,229.960 368.033 M258.553 368.621 C 258.689 368.977,258.622 369.137,258.395 368.997 C 258.178 368.863,258.000 369.123,258.000 369.576 C 258.000 370.029,258.000 370.490,258.000 370.600 C 258.000 370.710,258.134 370.755,258.297 370.700 C 258.461 370.645,258.543 370.330,258.481 370.000 C 258.388 369.514,258.436 369.503,258.733 369.943 C 259.122 370.518,259.503 370.137,259.376 369.300 C 259.334 369.025,259.278 368.620,259.250 368.400 C 259.223 368.180,259.001 368.000,258.757 368.000 C 258.514 368.000,258.422 368.279,258.553 368.621 M259.779 369.074 C 259.870 369.555,259.689 370.160,259.376 370.420 C 259.064 370.679,258.907 371.050,259.028 371.245 C 259.149 371.440,258.806 371.600,258.266 371.600 C 257.727 371.600,257.176 371.885,257.043 372.233 C 256.715 373.086,256.734 373.200,257.200 373.200 C 257.420 373.200,257.600 372.968,257.600 372.685 C 257.600 372.402,257.960 372.143,258.400 372.110 C 258.840 372.077,259.200 372.219,259.200 372.425 C 259.200 372.631,259.030 372.800,258.823 372.800 C 258.616 372.800,258.515 373.157,258.599 373.594 C 258.686 374.045,258.460 374.557,258.076 374.781 C 257.270 375.251,257.319 375.272,259.498 375.406 C 261.164 375.509,261.192 375.490,260.994 374.367 C 260.851 373.552,260.938 373.278,261.296 373.416 C 262.269 373.789,261.836 371.028,260.695 369.575 C 259.822 368.465,259.645 368.369,259.779 369.074 M233.767 369.343 C 233.628 369.704,233.219 370.014,232.857 370.032 C 232.438 370.052,232.382 370.137,232.702 370.266 C 232.979 370.377,233.118 370.609,233.012 370.781 C 232.906 370.953,233.220 371.427,233.709 371.836 C 234.199 372.244,234.375 372.323,234.100 372.009 C 233.825 371.696,233.600 371.285,233.600 371.096 C 233.600 370.907,233.825 370.888,234.100 371.053 C 234.497 371.292,234.499 371.228,234.110 370.747 C 233.738 370.287,233.731 370.029,234.083 369.677 C 234.338 369.422,234.428 369.095,234.283 368.949 C 234.138 368.804,233.905 368.981,233.767 369.343 M218.800 369.594 C 219.256 369.893,219.064 369.996,218.000 370.022 C 217.000 370.046,216.808 370.138,217.330 370.344 C 217.731 370.502,218.046 370.759,218.030 370.916 C 217.949 371.694,218.060 371.829,218.780 371.829 C 219.310 371.829,219.535 371.583,219.480 371.062 C 219.367 369.976,220.766 369.837,221.157 370.896 C 221.413 371.588,221.506 371.622,221.709 371.093 C 222.019 370.285,221.368 369.780,219.600 369.457 C 218.615 369.277,218.378 369.318,218.800 369.594 M215.489 370.049 C 215.736 370.296,215.833 370.791,215.705 371.149 C 215.577 371.507,215.620 371.667,215.799 371.503 C 215.979 371.340,216.368 371.407,216.663 371.652 C 216.958 371.897,217.194 371.941,217.187 371.749 C 217.168 371.270,215.745 369.600,215.356 369.600 C 215.182 369.600,215.242 369.802,215.489 370.049 M213.545 370.314 C 214.006 370.643,214.006 370.743,213.545 370.956 C 213.245 371.095,213.396 371.136,213.881 371.047 C 214.365 370.958,214.827 371.082,214.907 371.322 C 214.988 371.563,215.171 371.454,215.314 371.080 C 215.482 370.641,215.378 370.400,215.020 370.400 C 214.715 370.400,214.136 370.293,213.733 370.162 C 213.181 369.983,213.135 370.021,213.545 370.314 M261.194 371.924 C 261.197 372.439,261.023 372.738,260.800 372.600 C 260.580 372.464,260.400 372.644,260.400 373.000 C 260.400 373.356,260.220 373.536,260.000 373.400 C 259.665 373.193,259.431 373.909,259.530 374.833 C 259.544 374.962,259.298 375.067,258.984 375.067 C 258.627 375.067,258.543 374.904,258.760 374.633 C 259.207 374.076,259.783 371.580,259.644 370.800 C 259.572 370.390,259.744 370.453,260.190 371.000 C 260.827 371.783,260.836 371.778,260.595 370.800 C 260.404 370.029,260.444 369.937,260.768 370.400 C 260.999 370.730,261.191 371.416,261.194 371.924 M264.044 370.547 C 263.699 370.963,263.735 371.214,264.195 371.596 C 264.900 372.181,265.019 372.983,264.338 372.562 C 264.042 372.379,263.985 372.453,264.180 372.768 C 264.357 373.054,264.139 373.626,263.657 374.139 L 262.831 375.018 264.397 375.046 C 266.089 375.075,266.737 374.378,265.767 373.573 C 265.291 373.177,265.226 373.202,265.418 373.703 C 265.548 374.042,265.434 374.455,265.165 374.621 C 264.824 374.833,264.778 374.755,265.015 374.362 C 265.280 373.923,265.192 373.931,264.615 374.400 C 263.897 374.983,263.897 374.960,264.608 373.600 C 265.011 372.830,265.394 371.660,265.460 371.000 L 265.580 369.800 264.973 370.800 C 264.412 371.725,264.385 371.732,264.610 370.900 C 264.888 369.873,264.701 369.756,264.044 370.547 M219.606 370.767 C 219.615 371.092,220.379 372.245,220.424 372.000 C 220.445 371.890,220.517 371.515,220.585 371.167 C 220.654 370.818,220.460 370.533,220.155 370.533 C 219.850 370.533,219.603 370.638,219.606 370.767 M225.034 371.057 C 224.681 371.976,225.354 372.578,225.942 371.870 C 226.304 371.434,226.283 371.201,225.852 370.843 C 225.416 370.481,225.237 370.528,225.034 371.057 M267.986 371.574 C 268.546 372.620,268.508 372.816,267.800 372.545 C 267.470 372.418,267.177 372.469,267.149 372.657 C 266.930 374.130,266.958 374.749,267.238 374.577 C 267.418 374.465,267.464 374.110,267.340 373.787 C 267.216 373.464,267.314 373.200,267.557 373.200 C 267.801 373.200,268.000 373.380,268.000 373.600 C 268.000 373.820,268.143 374.000,268.319 374.000 C 268.595 374.000,268.639 373.115,268.452 371.300 C 268.423 371.025,268.214 370.800,267.986 370.800 C 267.700 370.800,267.700 371.040,267.986 371.574 M227.500 371.478 C 227.115 371.577,226.800 371.845,226.800 372.072 C 226.800 372.300,227.058 372.386,227.374 372.265 C 227.690 372.144,228.036 372.260,228.143 372.522 C 228.249 372.785,228.369 372.640,228.408 372.200 C 228.470 371.513,228.528 371.541,228.820 372.400 L 229.161 373.400 229.081 372.431 C 228.995 371.404,228.634 371.186,227.500 371.478 M255.845 372.427 C 255.562 373.102,255.170 373.629,254.975 373.597 C 254.780 373.566,254.568 373.695,254.505 373.884 C 254.442 374.074,254.753 374.229,255.195 374.229 C 255.935 374.229,256.178 373.900,256.042 373.084 C 256.013 372.910,256.178 372.415,256.409 371.984 C 256.639 371.553,256.723 371.200,256.595 371.200 C 256.466 371.200,256.129 371.752,255.845 372.427 M263.000 372.000 C 263.136 372.220,263.068 372.400,262.848 372.400 C 262.629 372.400,262.477 372.760,262.510 373.200 C 262.591 374.270,263.049 374.215,263.348 373.100 C 263.687 371.836,263.660 371.600,263.176 371.600 C 262.943 371.600,262.864 371.780,263.000 372.000 M265.891 372.426 C 266.032 372.966,266.243 373.117,266.499 372.861 C 266.913 372.447,266.587 371.600,266.014 371.600 C 265.827 371.600,265.772 371.972,265.891 372.426 M251.206 373.324 C 251.203 373.970,251.030 374.342,250.800 374.200 C 250.580 374.064,250.395 374.188,250.388 374.476 C 250.380 374.800,250.220 374.732,249.968 374.300 C 249.339 373.221,248.200 373.414,248.200 374.600 C 248.200 375.150,248.335 375.600,248.500 375.600 C 248.790 375.600,248.955 374.949,248.837 374.270 C 248.806 374.089,248.968 374.056,249.197 374.198 C 249.426 374.339,249.504 374.631,249.372 374.846 C 249.231 375.074,249.520 375.163,250.065 375.061 C 251.717 374.749,252.800 374.316,252.800 373.966 C 252.800 373.778,252.500 373.740,252.134 373.881 C 251.751 374.028,251.570 373.972,251.708 373.749 C 251.840 373.536,251.782 373.100,251.580 372.781 C 251.305 372.347,251.211 372.485,251.206 373.324 M252.849 373.128 C 253.290 373.313,253.455 373.781,253.366 374.596 C 253.270 375.467,253.337 375.630,253.611 375.196 C 253.818 374.868,253.991 374.802,253.994 375.048 C 254.002 375.640,255.657 375.535,256.329 374.900 C 256.619 374.625,257.114 374.400,257.429 374.400 C 257.743 374.400,258.000 374.226,258.000 374.013 C 258.000 373.647,257.085 373.828,256.200 374.368 C 255.287 374.926,254.198 374.584,254.072 373.700 C 253.983 373.070,253.683 372.808,253.072 372.828 C 252.386 372.850,252.338 372.914,252.849 373.128 " stroke="none" fill="#04448c" fill-rule="evenodd"></path><path id="path3" d="M0.000 200.200 L 0.000 400.400 200.000 400.400 L 400.000 400.400 400.000 200.200 L 400.000 0.000 200.000 0.000 L 0.000 0.000 0.000 200.200 M107.789 23.183 C 107.919 23.393,108.288 23.464,108.609 23.341 C 108.936 23.216,109.302 23.400,109.439 23.758 C 109.575 24.111,109.894 24.400,110.148 24.400 C 110.402 24.400,110.788 24.743,111.005 25.163 C 111.222 25.583,113.639 30.398,116.376 35.863 C 119.113 41.328,121.588 46.038,121.876 46.329 C 122.164 46.619,122.400 47.204,122.400 47.629 C 122.400 48.053,122.544 48.400,122.720 48.400 C 122.895 48.400,123.265 49.024,123.541 49.786 C 123.816 50.549,124.670 52.214,125.437 53.486 C 126.204 54.759,126.943 56.250,127.078 56.800 C 127.213 57.350,127.436 57.890,127.574 58.000 C 127.711 58.110,128.343 59.508,128.978 61.106 C 129.946 63.542,130.254 63.973,130.885 63.773 C 131.299 63.641,131.899 63.750,132.217 64.014 C 132.535 64.278,133.246 64.408,133.798 64.303 C 134.349 64.197,134.800 64.266,134.800 64.455 C 134.800 64.645,135.241 64.800,135.781 64.800 C 136.320 64.800,139.245 65.149,142.281 65.575 C 145.316 66.001,149.510 66.561,151.600 66.819 C 153.690 67.077,155.760 67.443,156.200 67.631 C 157.404 68.147,162.514 68.744,163.731 68.511 C 164.408 68.382,164.800 68.482,164.800 68.785 C 164.800 69.108,165.188 69.178,165.990 69.002 C 166.645 68.858,167.410 68.888,167.690 69.068 C 167.971 69.248,169.460 69.611,171.000 69.875 C 174.243 70.431,176.028 71.932,176.783 74.738 C 177.295 76.639,177.056 79.191,176.322 79.656 C 176.035 79.839,175.894 79.991,176.008 79.994 C 176.293 80.002,169.894 86.514,167.081 89.080 C 165.826 90.223,164.800 91.309,164.800 91.491 C 164.800 91.674,164.396 92.088,163.902 92.412 C 163.409 92.735,160.124 95.877,156.602 99.393 C 153.081 102.909,150.110 105.767,150.000 105.744 C 149.890 105.721,149.289 106.242,148.665 106.903 L 147.530 108.104 148.535 107.852 C 149.087 107.714,152.838 107.246,156.869 106.814 C 171.472 105.248,181.862 103.981,184.800 103.409 C 185.350 103.302,186.520 102.869,187.400 102.448 C 188.280 102.026,189.900 101.281,191.000 100.792 C 195.512 98.786,204.609 94.242,204.733 93.932 C 204.807 93.749,205.031 93.600,205.231 93.600 C 205.961 93.600,221.995 85.291,225.400 83.148 C 226.280 82.595,227.315 82.025,227.700 81.883 C 228.085 81.741,228.400 81.389,228.400 81.101 C 228.400 80.813,228.715 80.280,229.100 79.917 C 229.485 79.554,229.999 79.019,230.243 78.728 C 231.720 76.967,235.369 73.889,236.578 73.383 C 238.324 72.654,238.401 71.764,236.856 70.176 C 236.226 69.529,235.590 68.613,235.442 68.141 C 235.251 67.532,234.944 67.342,234.387 67.488 C 233.388 67.749,231.601 66.597,231.598 65.691 C 231.596 65.219,230.996 64.810,229.704 64.400 C 227.626 63.741,225.876 61.708,226.076 60.184 C 226.138 59.711,225.689 58.746,225.060 57.998 C 224.045 56.792,223.957 56.456,224.178 54.629 C 224.313 53.513,224.493 51.303,224.578 49.718 C 224.799 45.603,225.736 42.694,227.249 41.420 C 228.872 40.054,237.704 40.046,239.210 41.409 C 239.811 41.953,240.537 42.124,241.930 42.051 C 243.388 41.973,243.994 42.130,244.531 42.724 C 245.092 43.344,245.591 43.458,247.040 43.294 C 248.808 43.095,251.600 44.826,251.600 46.121 C 251.600 46.321,252.050 47.019,252.600 47.673 C 253.150 48.327,253.600 49.145,253.600 49.491 C 253.600 49.837,254.079 51.100,254.665 52.297 C 255.270 53.534,255.569 54.586,255.357 54.736 C 255.152 54.881,254.764 55.450,254.495 56.000 C 254.226 56.550,253.835 57.270,253.627 57.600 C 253.418 57.930,253.142 58.700,253.014 59.310 C 252.885 59.921,252.450 60.750,252.048 61.152 C 251.645 61.555,251.192 62.379,251.040 62.984 C 250.866 63.675,250.356 64.237,249.665 64.498 C 248.499 64.938,247.600 66.389,247.600 67.831 C 247.600 68.310,247.354 68.906,247.053 69.156 C 246.472 69.638,247.385 72.358,248.138 72.387 C 249.400 72.436,252.780 73.759,253.611 74.530 C 254.244 75.117,255.569 75.643,257.207 75.959 C 264.394 77.343,271.923 83.242,282.211 95.551 C 287.599 101.999,296.988 116.611,298.691 121.200 C 300.366 125.712,299.726 138.460,297.516 144.600 C 296.548 147.290,292.203 155.953,290.729 158.131 C 289.861 159.413,288.792 161.101,288.353 161.883 C 287.915 162.664,286.624 164.552,285.485 166.079 C 283.427 168.839,283.416 168.868,283.524 171.527 C 283.614 173.744,283.474 174.456,282.703 175.704 C 281.833 177.114,281.795 177.440,282.094 180.904 C 282.396 184.392,282.196 200.656,281.798 205.000 C 281.698 206.100,281.512 209.520,281.386 212.600 C 281.089 219.822,280.874 223.120,280.643 223.941 C 280.541 224.303,280.351 226.310,280.220 228.400 C 280.089 230.490,279.804 234.360,279.586 237.000 C 279.369 239.640,279.004 244.140,278.775 247.000 C 278.546 249.860,278.109 255.080,277.802 258.600 C 277.496 262.120,277.129 266.350,276.988 268.000 C 276.521 273.448,276.407 274.571,276.014 277.600 C 275.432 282.077,274.492 290.775,274.003 296.200 C 273.766 298.840,273.315 303.430,273.003 306.400 C 272.691 309.370,272.319 312.970,272.176 314.400 C 272.034 315.830,271.841 317.540,271.748 318.200 C 271.223 321.908,270.766 327.299,270.959 327.493 C 271.709 328.242,274.616 326.947,274.983 325.700 C 275.193 324.985,275.508 324.400,275.683 324.400 C 275.857 324.400,276.000 324.175,275.999 323.900 C 275.998 323.353,277.642 319.922,278.060 319.600 C 278.407 319.332,280.800 314.085,280.800 313.590 C 280.800 313.375,280.980 313.200,281.200 313.200 C 281.420 313.200,281.600 312.956,281.600 312.658 C 281.600 311.506,283.516 310.000,284.981 310.000 C 286.383 310.000,288.000 311.094,288.000 312.043 C 288.000 312.286,288.528 313.591,289.172 314.943 C 289.817 316.294,290.533 317.895,290.762 318.500 C 291.575 320.641,292.000 319.672,292.000 315.675 C 292.000 310.291,293.898 308.431,296.946 310.829 C 297.578 311.326,298.000 311.465,298.000 311.175 C 298.000 310.608,297.249 307.748,296.798 306.600 C 293.818 299.010,295.639 298.232,305.510 302.877 C 307.381 303.757,308.646 303.640,310.376 302.430 C 310.939 302.035,312.075 301.397,312.900 301.011 C 313.725 300.625,314.400 300.149,314.400 299.954 C 314.400 299.759,314.670 299.600,315.000 299.600 C 315.330 299.600,315.600 299.420,315.600 299.200 C 315.600 298.980,315.855 298.800,316.167 298.800 C 316.478 298.800,316.793 298.631,316.867 298.424 C 316.940 298.216,317.504 297.957,318.119 297.847 C 319.951 297.518,320.191 298.646,319.663 305.086 L 319.210 310.600 321.095 312.268 C 322.131 313.186,323.119 313.850,323.290 313.745 C 323.460 313.639,323.600 313.752,323.600 313.996 C 323.600 315.232,325.780 316.425,327.639 316.206 C 330.952 315.815,332.798 318.555,331.172 321.450 C 330.779 322.150,330.558 322.825,330.683 322.949 C 330.807 323.073,330.641 323.586,330.314 324.088 C 329.610 325.169,327.171 331.695,327.008 332.935 C 326.946 333.411,326.756 334.136,326.587 334.546 C 326.321 335.191,326.410 335.252,327.239 334.993 C 327.768 334.829,328.257 334.548,328.326 334.370 C 328.395 334.191,328.710 334.144,329.026 334.265 C 329.342 334.386,329.600 334.276,329.600 334.019 C 329.600 333.763,329.780 333.664,330.000 333.800 C 330.220 333.936,330.400 333.849,330.400 333.606 C 330.400 333.363,330.625 333.202,330.900 333.247 C 331.175 333.292,331.880 333.129,332.467 332.886 C 333.804 332.333,335.552 333.028,335.775 334.200 C 335.859 334.640,336.134 336.170,336.386 337.600 C 336.638 339.030,336.892 340.434,336.949 340.720 C 337.141 341.681,339.543 342.764,347.177 345.331 C 351.355 346.735,355.122 348.135,355.549 348.442 C 356.608 349.203,357.067 350.800,356.227 350.800 C 355.882 350.800,355.600 350.991,355.600 351.224 C 355.600 351.457,355.420 351.536,355.200 351.400 C 354.980 351.264,354.800 351.328,354.800 351.542 C 354.800 351.755,354.215 351.894,353.500 351.849 C 352.785 351.804,351.390 351.982,350.400 352.243 C 349.410 352.504,345.835 353.116,342.454 353.604 C 335.819 354.562,335.335 354.782,334.528 357.203 C 332.921 362.027,331.933 364.725,331.453 365.600 C 331.151 366.150,330.593 367.557,330.212 368.726 C 328.649 373.518,325.017 373.099,321.323 367.700 C 319.544 365.101,318.731 364.230,318.164 364.317 C 317.541 364.412,317.509 364.360,317.990 364.038 C 318.492 363.701,318.447 363.502,317.690 362.695 C 317.200 362.175,316.800 361.630,316.800 361.486 C 316.800 361.093,314.284 357.600,314.001 357.600 C 313.731 357.600,310.135 362.305,308.957 364.200 C 308.546 364.860,307.983 365.638,307.705 365.929 C 307.427 366.219,307.200 366.714,307.200 367.029 C 307.200 367.343,306.975 367.601,306.700 367.601 C 306.425 367.602,305.840 368.147,305.400 368.813 C 303.905 371.076,300.999 371.017,299.867 368.700 C 299.464 367.875,298.906 367.200,298.628 367.200 C 298.350 367.200,297.707 366.840,297.200 366.400 C 296.217 365.548,295.769 365.416,295.499 365.900 C 295.407 366.065,295.386 365.975,295.453 365.700 C 295.523 365.415,294.283 364.586,292.578 363.777 C 290.930 362.995,288.522 361.723,287.227 360.952 L 284.873 359.550 282.736 360.627 C 281.561 361.220,280.504 361.854,280.387 362.036 C 280.269 362.218,278.803 362.991,277.128 363.754 C 275.453 364.517,273.951 365.355,273.790 365.616 C 273.538 366.025,270.874 367.337,268.720 368.114 C 268.087 368.343,268.085 368.448,268.695 369.670 C 269.055 370.392,269.426 371.902,269.519 373.027 L 269.688 375.071 267.944 375.521 C 260.722 377.382,242.810 376.249,244.188 374.019 C 244.499 373.516,247.728 372.550,250.934 372.000 C 255.028 371.299,256.800 370.498,256.800 369.349 C 256.800 368.807,257.214 367.949,257.720 367.443 C 258.762 366.402,258.700 365.600,257.578 365.600 C 257.000 365.600,256.671 365.060,256.177 363.300 C 255.822 362.035,254.751 358.480,253.796 355.400 C 252.841 352.320,251.514 347.628,250.848 344.973 C 250.181 342.318,249.432 339.618,249.183 338.973 C 248.663 337.628,247.714 334.106,245.786 326.368 C 245.041 323.381,244.227 320.411,243.977 319.768 C 243.726 319.126,242.662 314.910,241.611 310.400 L 239.701 302.200 239.437 305.600 C 239.291 307.470,238.996 310.890,238.780 313.200 C 238.565 315.510,238.015 321.630,237.559 326.800 C 236.510 338.691,236.578 338.021,236.048 341.800 C 235.801 343.560,235.530 346.260,235.446 347.800 C 235.361 349.340,235.196 350.870,235.078 351.200 C 234.961 351.530,234.644 354.111,234.374 356.935 C 234.031 360.523,233.720 362.133,233.342 362.278 C 232.517 362.594,232.673 363.019,234.222 364.678 C 236.883 367.525,238.067 371.583,236.594 372.805 C 234.138 374.843,210.079 372.938,211.394 370.809 C 211.710 370.299,215.300 369.314,218.800 368.777 C 222.991 368.134,224.262 367.541,224.583 366.079 C 224.727 365.421,225.195 364.566,225.623 364.179 C 226.669 363.233,226.601 362.800,225.408 362.800 C 224.655 362.800,224.352 362.534,224.152 361.700 C 224.008 361.095,223.784 360.420,223.656 360.200 C 223.528 359.980,223.392 359.603,223.356 359.361 C 223.186 358.247,220.249 346.698,219.500 344.200 C 218.457 340.720,218.491 340.847,218.204 339.400 C 218.072 338.740,217.530 336.490,216.999 334.400 C 216.467 332.310,215.406 327.990,214.641 324.800 C 213.875 321.610,212.795 317.110,212.241 314.800 C 211.686 312.490,210.855 308.620,210.394 306.200 C 209.933 303.780,209.297 300.990,208.982 300.000 C 208.362 298.054,207.050 291.888,205.366 283.000 C 204.783 279.920,204.195 277.220,204.059 277.000 C 203.923 276.780,203.792 276.150,203.766 275.600 C 203.741 275.050,203.412 272.980,203.035 271.000 C 199.358 251.704,199.872 230.340,204.596 206.200 C 206.875 194.552,211.035 177.487,211.978 175.913 C 212.264 175.437,212.254 174.885,211.948 174.113 C 210.724 171.037,209.961 166.990,209.737 162.400 C 209.604 159.650,209.338 157.097,209.147 156.726 C 208.700 155.859,208.693 150.113,209.139 149.838 C 209.325 149.722,209.585 147.327,209.715 144.514 C 209.846 141.701,210.218 137.600,210.543 135.400 C 210.867 133.200,211.324 130.018,211.557 128.330 C 212.083 124.513,212.139 124.247,212.461 124.000 C 212.604 123.890,212.852 122.930,213.011 121.868 L 213.301 119.935 211.150 120.031 C 209.968 120.084,208.871 120.195,208.713 120.279 C 208.555 120.363,206.395 120.510,203.913 120.606 C 201.431 120.703,197.690 121.158,195.600 121.618 C 187.732 123.350,185.280 123.634,176.200 123.861 C 166.961 124.093,159.103 123.565,153.200 122.315 C 151.990 122.059,150.910 121.831,150.800 121.808 C 150.690 121.785,149.913 121.531,149.073 121.243 C 147.181 120.595,146.959 120.801,147.502 122.697 C 147.738 123.524,148.123 125.460,148.356 127.000 C 149.963 137.598,150.899 143.136,151.230 144.000 C 154.125 151.555,151.617 158.835,146.098 158.897 C 143.531 158.926,141.206 158.643,141.667 158.359 C 141.941 158.190,141.746 157.895,141.154 157.583 C 140.629 157.307,140.110 156.963,140.000 156.819 C 139.890 156.676,139.080 156.228,138.200 155.824 C 134.469 154.112,130.962 152.310,130.402 151.817 C 130.071 151.526,128.540 150.675,127.000 149.926 C 123.012 147.985,113.394 142.946,112.258 142.201 C 111.731 141.856,110.888 141.494,110.385 141.397 C 109.883 141.300,108.770 140.757,107.914 140.191 C 106.837 139.478,106.085 139.244,105.478 139.431 C 103.742 139.967,97.727 143.065,89.600 147.610 C 87.730 148.656,85.795 149.633,85.300 149.783 C 84.805 149.932,84.400 150.232,84.400 150.451 C 84.400 150.669,84.220 150.736,84.000 150.600 C 83.780 150.464,83.600 150.554,83.600 150.800 C 83.600 151.046,83.435 151.145,83.234 151.021 C 83.033 150.897,82.808 150.931,82.734 151.098 C 82.660 151.264,81.712 151.819,80.626 152.331 C 79.086 153.057,78.778 153.348,79.226 153.657 C 79.655 153.952,79.579 153.991,78.926 153.807 C 78.155 153.591,73.448 155.546,72.800 156.352 C 72.068 157.260,67.278 158.997,65.572 158.971 C 60.906 158.902,58.833 155.351,59.786 149.058 C 60.817 142.247,61.747 136.588,62.591 132.000 C 62.692 131.450,62.950 130.280,63.165 129.400 C 64.296 124.755,64.671 119.638,63.920 119.098 C 63.542 118.827,63.591 118.786,64.100 118.950 C 64.485 119.074,64.808 119.136,64.819 119.087 C 64.829 119.039,65.170 117.020,65.577 114.600 L 66.317 110.200 64.259 108.338 C 62.833 107.049,62.096 106.618,61.862 106.938 C 61.642 107.239,61.595 107.177,61.727 106.759 C 61.867 106.317,59.331 103.572,53.598 97.959 C 37.144 81.846,37.145 81.847,36.732 82.445 C 36.457 82.842,36.420 82.743,36.601 82.100 C 36.740 81.605,36.677 81.200,36.460 81.200 C 35.701 81.200,34.686 77.687,34.899 75.796 C 35.350 71.794,37.618 70.125,43.600 69.392 C 44.810 69.243,46.160 69.031,46.600 68.919 C 47.040 68.807,47.940 68.658,48.600 68.589 C 49.260 68.519,49.890 68.419,50.000 68.368 C 50.110 68.316,50.740 68.240,51.400 68.198 C 53.550 68.060,57.368 67.536,58.800 67.182 C 59.570 66.992,64.430 66.279,69.600 65.598 C 74.770 64.917,79.270 64.244,79.600 64.103 C 79.930 63.961,80.435 63.834,80.723 63.820 C 81.011 63.805,81.641 63.075,82.123 62.197 C 82.605 61.319,83.147 60.492,83.327 60.360 C 83.506 60.228,83.700 59.868,83.757 59.560 C 83.850 59.063,85.960 54.749,88.336 50.200 C 90.705 45.663,94.000 38.505,94.000 37.895 C 94.000 37.513,94.149 37.200,94.332 37.200 C 94.514 37.200,95.092 36.255,95.615 35.100 C 96.138 33.945,96.899 32.509,97.305 31.908 C 97.711 31.308,98.108 30.498,98.188 30.108 C 99.097 25.669,106.172 20.565,107.789 23.183 M93.468 74.300 C 93.370 74.465,93.177 76.400,93.040 78.600 C 92.631 85.177,92.320 89.437,91.795 95.668 L 91.502 99.137 93.601 100.201 C 95.578 101.202,95.846 101.239,98.183 100.832 C 106.805 99.331,111.288 101.682,110.573 107.331 C 110.046 111.495,103.905 113.596,97.955 111.648 C 95.698 110.909,91.135 109.600,90.816 109.600 C 90.651 109.600,90.536 111.895,90.561 114.699 L 90.606 119.798 92.203 120.332 C 102.524 123.778,114.898 122.168,119.774 116.745 C 121.333 115.011,121.844 113.981,123.139 109.972 C 124.586 105.489,122.730 97.957,119.344 94.571 C 116.452 91.679,113.627 90.675,108.200 90.610 C 104.575 90.567,103.427 90.430,103.509 90.050 C 103.569 89.773,103.729 88.478,103.866 87.173 L 104.114 84.800 112.257 84.800 L 120.400 84.800 120.400 79.400 L 120.400 74.000 107.024 74.000 C 99.667 74.000,93.567 74.135,93.468 74.300 M274.669 130.500 C 274.805 131.215,275.222 132.790,275.594 134.000 L 276.270 136.200 276.725 134.619 C 277.148 133.151,277.092 132.902,275.948 131.119 C 274.493 128.851,274.339 128.777,274.669 130.500 " stroke="none" fill="#f0f0f0" fill-rule="evenodd"></path><path id="path4" d="M105.100 23.082 C 105.595 23.178,106.405 23.178,106.900 23.082 C 107.395 22.987,106.990 22.909,106.000 22.909 C 105.010 22.909,104.605 22.987,105.100 23.082 M98.799 28.202 C 98.566 28.814,98.281 29.469,98.164 29.658 C 98.048 29.846,98.049 30.000,98.166 30.000 C 98.515 30.000,99.678 27.544,99.441 27.307 C 99.321 27.187,99.032 27.590,98.799 28.202 M226.636 42.031 C 226.066 42.708,225.605 43.473,225.612 43.731 C 225.619 43.989,225.823 43.840,226.067 43.400 C 226.310 42.960,226.876 42.195,227.324 41.700 C 227.773 41.205,228.034 40.800,227.905 40.800 C 227.776 40.800,227.205 41.354,226.636 42.031 M240.257 42.307 C 240.153 42.476,240.775 42.547,241.639 42.465 C 242.703 42.363,243.564 42.553,244.305 43.052 C 245.056 43.557,245.938 43.747,247.114 43.657 C 248.131 43.579,249.107 43.744,249.514 44.063 C 250.141 44.554,250.150 44.537,249.616 43.857 C 249.148 43.263,248.648 43.151,247.124 43.298 C 245.619 43.442,245.075 43.325,244.546 42.741 C 243.865 41.987,240.655 41.663,240.257 42.307 M251.008 45.895 C 251.330 46.542,252.000 47.413,252.497 47.832 L 253.400 48.594 252.500 47.571 C 252.005 47.009,251.600 46.357,251.600 46.123 C 251.600 45.889,251.335 45.478,251.011 45.209 C 250.492 44.778,250.491 44.860,251.008 45.895 M224.712 51.600 C 224.576 52.150,224.350 53.050,224.210 53.600 C 224.052 54.222,224.197 54.079,224.592 53.221 C 224.942 52.462,225.168 51.562,225.094 51.221 C 225.010 50.831,224.868 50.972,224.712 51.600 M125.882 54.989 C 126.473 56.193,127.023 57.111,127.105 57.029 C 127.284 56.849,125.267 52.800,124.998 52.800 C 124.894 52.800,125.292 53.785,125.882 54.989 M254.800 53.976 C 254.800 54.429,254.980 54.800,255.200 54.800 C 255.420 54.800,255.600 54.541,255.600 54.224 C 255.600 53.907,255.420 53.536,255.200 53.400 C 254.980 53.264,254.800 53.523,254.800 53.976 M238.958 57.804 C 238.362 58.356,237.961 58.894,238.066 59.000 C 238.172 59.105,238.774 58.654,239.404 57.996 C 240.794 56.545,240.468 56.405,238.958 57.804 M235.441 57.933 C 235.313 58.140,235.577 58.405,236.027 58.523 C 236.526 58.653,236.788 58.564,236.698 58.294 C 236.497 57.692,235.727 57.471,235.441 57.933 M233.614 59.174 C 233.069 60.192,233.081 62.800,233.631 62.800 C 233.887 62.800,234.019 62.112,233.956 61.100 C 233.895 60.107,234.020 59.432,234.259 59.478 C 234.483 59.521,234.667 59.296,234.667 58.978 C 234.667 58.157,234.102 58.262,233.614 59.174 M249.377 58.967 C 248.950 59.279,248.707 59.640,248.836 59.770 C 248.966 59.899,249.398 59.644,249.798 59.202 C 250.648 58.263,250.473 58.166,249.377 58.967 M252.626 59.517 C 252.491 59.945,252.024 60.616,251.590 61.009 C 251.155 61.402,250.800 62.043,250.800 62.433 C 250.800 62.823,250.326 63.515,249.746 63.971 C 249.166 64.427,248.896 64.800,249.146 64.800 C 249.885 64.800,251.200 63.264,251.200 62.400 C 251.200 61.960,251.375 61.600,251.590 61.600 C 252.039 61.600,253.355 59.222,253.066 58.933 C 252.960 58.827,252.762 59.090,252.626 59.517 M237.382 61.621 C 237.382 62.897,237.453 63.013,237.891 62.452 C 238.360 61.852,238.434 61.856,238.820 62.500 C 239.051 62.885,239.433 63.200,239.669 63.200 C 239.949 63.200,239.931 62.998,239.615 62.618 C 239.349 62.297,239.264 61.819,239.427 61.556 C 239.599 61.278,239.555 61.181,239.322 61.324 C 239.102 61.461,238.575 61.250,238.151 60.855 C 237.401 60.156,237.382 60.176,237.382 61.621 M226.764 62.333 C 226.980 62.736,227.471 63.321,227.855 63.633 C 228.287 63.984,228.190 63.704,227.601 62.900 C 226.551 61.465,226.157 61.198,226.764 62.333 M247.935 64.766 C 247.852 65.628,247.904 66.260,248.048 66.170 C 248.414 65.944,248.703 63.200,248.362 63.200 C 248.209 63.200,248.017 63.905,247.935 64.766 M231.600 65.908 C 231.600 66.560,233.247 67.607,234.189 67.554 C 234.991 67.508,234.991 67.505,234.200 67.314 C 233.760 67.207,232.995 66.747,232.500 66.290 C 232.005 65.834,231.600 65.662,231.600 65.908 M154.100 67.476 C 154.485 67.576,155.115 67.576,155.500 67.476 C 155.885 67.375,155.570 67.293,154.800 67.293 C 154.030 67.293,153.715 67.375,154.100 67.476 M235.415 68.000 C 235.705 69.056,236.283 69.865,236.539 69.573 C 236.622 69.478,236.342 68.860,235.915 68.200 C 235.206 67.103,235.163 67.086,235.415 68.000 M247.084 67.800 C 246.927 68.240,246.688 68.870,246.552 69.200 C 246.351 69.686,246.435 69.676,246.990 69.147 C 247.368 68.788,247.607 68.158,247.522 67.747 C 247.376 67.042,247.352 67.045,247.084 67.800 M246.413 70.219 C 246.406 70.449,247.026 71.799,247.791 73.219 C 250.562 78.361,248.394 81.915,242.247 82.310 C 237.859 82.591,236.459 80.484,237.791 75.600 C 238.121 74.390,238.368 72.860,238.341 72.200 C 238.301 71.251,238.255 71.190,238.117 71.907 C 238.007 72.479,237.430 73.028,236.550 73.395 C 235.363 73.891,231.707 76.983,230.243 78.728 C 229.999 79.019,229.485 79.554,229.100 79.917 C 228.715 80.280,228.400 80.814,228.400 81.102 C 228.400 81.390,228.081 81.755,227.691 81.913 C 226.586 82.360,222.400 84.837,222.400 85.043 C 222.400 85.266,223.665 84.610,225.692 83.337 C 227.402 82.263,227.910 82.145,227.215 82.982 C 226.949 83.303,226.864 83.781,227.027 84.044 C 227.211 84.342,227.154 84.419,226.877 84.248 C 226.388 83.945,224.663 86.930,225.084 87.350 C 225.221 87.488,225.113 87.600,224.843 87.600 C 224.573 87.600,224.464 87.780,224.600 88.000 C 224.736 88.220,224.685 88.400,224.486 88.400 C 223.809 88.400,219.847 97.327,219.887 98.762 C 219.907 99.512,219.790 99.908,219.626 99.642 C 219.454 99.364,218.632 101.326,217.682 104.280 C 215.244 111.863,214.868 113.342,215.048 114.631 C 215.189 115.639,215.155 115.690,214.801 115.000 C 214.480 114.373,214.439 114.546,214.611 115.800 C 214.751 116.828,214.699 117.206,214.465 116.858 C 214.217 116.489,213.870 117.542,213.377 120.158 C 212.979 122.271,212.536 124.000,212.393 124.000 C 212.250 124.000,212.121 124.225,212.105 124.500 C 212.090 124.775,211.865 126.440,211.605 128.200 C 211.345 129.960,210.867 133.200,210.543 135.400 C 210.218 137.600,209.846 141.701,209.715 144.514 C 209.585 147.327,209.325 149.722,209.139 149.838 C 208.693 150.113,208.700 155.859,209.147 156.726 C 209.338 157.097,209.604 159.650,209.737 162.400 C 209.960 166.976,210.725 171.041,211.937 174.085 C 212.269 174.920,212.235 175.426,211.787 176.285 C 211.467 176.898,211.211 177.670,211.218 178.000 C 211.225 178.330,211.495 177.993,211.817 177.250 L 212.403 175.901 213.798 178.625 C 216.721 184.331,219.645 186.015,227.898 186.742 L 231.195 187.032 231.407 185.816 C 231.524 185.147,231.804 183.700,232.031 182.600 C 232.257 181.500,232.806 178.508,233.251 175.951 L 234.059 171.302 228.231 165.589 C 225.025 162.447,222.056 159.634,221.633 159.338 C 220.772 158.735,220.217 156.808,220.577 155.673 C 221.029 154.247,221.576 154.120,237.088 151.841 C 241.045 151.260,239.943 152.564,244.792 142.727 C 248.222 135.768,249.043 134.394,249.963 134.073 C 251.471 133.547,253.471 134.434,254.039 135.881 C 254.402 136.808,261.152 150.754,261.411 151.113 C 261.490 151.223,268.304 152.382,269.722 152.526 C 270.465 152.602,270.959 151.435,274.007 142.400 C 274.638 140.530,275.409 138.394,275.721 137.653 C 276.221 136.465,276.206 136.042,275.600 134.053 C 275.222 132.814,274.799 131.170,274.660 130.400 L 274.406 129.000 275.243 130.000 L 276.079 131.000 275.293 129.600 C 272.596 124.800,270.627 120.625,268.376 114.933 C 266.969 111.376,265.660 108.563,265.466 108.683 C 265.273 108.802,265.243 108.495,265.400 108.000 C 265.613 107.330,265.556 107.180,265.181 107.412 C 264.853 107.614,264.776 107.562,264.962 107.262 C 265.119 107.008,265.107 106.575,264.935 106.300 C 264.764 106.025,264.576 105.496,264.518 105.124 C 264.315 103.827,261.311 96.666,261.122 97.032 C 261.017 97.234,260.996 97.150,261.075 96.844 C 261.336 95.831,260.768 94.614,260.330 95.247 C 260.058 95.640,260.021 95.540,260.201 94.900 C 260.356 94.350,260.279 94.000,260.003 94.000 C 259.756 94.000,259.646 93.849,259.760 93.664 C 260.253 92.867,256.811 88.122,256.191 88.742 C 256.049 88.884,255.984 88.820,256.046 88.600 C 256.255 87.855,255.547 86.385,255.109 86.656 C 254.871 86.803,254.785 86.747,254.918 86.532 C 255.052 86.317,254.906 85.074,254.594 83.770 C 254.283 82.467,254.022 80.185,254.014 78.700 L 254.000 76.000 255.300 75.946 C 256.333 75.902,256.403 75.854,255.645 75.710 C 255.119 75.611,254.222 75.096,253.650 74.566 C 252.743 73.725,249.309 72.400,248.038 72.400 C 247.797 72.400,247.600 72.164,247.600 71.876 C 247.600 71.249,246.431 69.617,246.413 70.219 M260.000 76.869 C 260.550 77.130,261.955 77.850,263.123 78.470 C 264.291 79.091,265.133 79.415,264.995 79.192 C 264.684 78.688,261.354 76.993,260.000 76.650 L 259.000 76.396 260.000 76.869 M268.000 81.329 C 268.000 81.414,269.305 82.634,270.900 84.039 C 272.666 85.595,273.331 86.040,272.600 85.177 C 271.514 83.894,268.000 80.954,268.000 81.329 M41.200 86.124 C 41.200 86.192,42.235 87.121,43.500 88.190 L 45.800 90.132 43.815 88.066 C 42.121 86.303,41.200 85.619,41.200 86.124 M216.437 87.994 C 214.807 88.859,213.277 89.768,213.037 90.014 C 212.568 90.493,218.744 87.305,219.380 86.738 C 220.058 86.135,219.453 86.393,216.437 87.994 M276.414 89.411 C 277.851 90.945,280.170 93.595,281.567 95.300 C 282.964 97.005,284.195 98.400,284.303 98.400 C 284.601 98.400,283.029 96.441,279.031 91.833 C 276.203 88.573,275.499 87.837,274.600 87.194 C 274.160 86.880,274.976 87.878,276.414 89.411 M207.200 92.718 C 204.552 94.006,204.626 93.961,204.833 94.160 C 204.925 94.248,206.170 93.717,207.600 92.980 C 210.685 91.389,210.365 91.180,207.200 92.718 M91.701 93.400 C 91.705 94.280,91.787 94.593,91.883 94.095 C 91.979 93.598,91.975 92.878,91.875 92.495 C 91.775 92.113,91.696 92.520,91.701 93.400 M196.700 98.025 C 194.995 98.897,193.600 99.700,193.600 99.809 C 193.600 99.988,199.960 96.928,200.367 96.554 C 200.933 96.032,199.379 96.655,196.700 98.025 M287.027 102.400 C 288.896 105.119,289.490 105.776,288.657 104.200 C 288.308 103.540,287.458 102.370,286.769 101.600 C 285.650 100.350,285.677 100.435,287.027 102.400 M187.274 102.435 C 186.545 102.862,185.285 103.320,184.474 103.450 C 180.019 104.169,179.391 104.364,182.200 104.156 C 184.645 103.975,191.270 101.597,189.200 101.643 C 188.870 101.651,188.003 102.007,187.274 102.435 M60.269 104.500 C 61.168 105.435,61.849 106.430,61.782 106.710 C 61.713 106.997,61.754 107.026,61.874 106.777 C 62.005 106.506,62.575 106.771,63.344 107.460 C 64.035 108.079,63.345 107.284,61.811 105.693 C 60.277 104.102,58.934 102.800,58.827 102.800 C 58.721 102.800,59.369 103.565,60.269 104.500 M176.500 104.676 C 176.885 104.776,177.515 104.776,177.900 104.676 C 178.285 104.575,177.970 104.493,177.200 104.493 C 176.430 104.493,176.115 104.575,176.500 104.676 M291.055 108.400 C 292.080 109.940,292.992 111.200,293.082 111.200 C 293.295 111.200,292.998 110.701,291.115 107.900 C 290.266 106.635,289.485 105.600,289.382 105.600 C 289.278 105.600,290.031 106.860,291.055 108.400 M154.000 107.071 C 150.994 107.378,147.159 108.092,147.372 108.305 C 147.495 108.428,148.812 108.318,150.298 108.061 C 151.784 107.803,154.260 107.437,155.800 107.247 C 158.464 106.919,156.945 106.770,154.000 107.071 M143.015 112.215 C 142.861 113.454,142.817 114.550,142.919 114.652 C 143.020 114.754,143.230 113.823,143.385 112.585 C 143.539 111.346,143.583 110.250,143.481 110.148 C 143.380 110.046,143.170 110.977,143.015 112.215 M296.985 118.300 C 297.551 119.455,298.091 120.400,298.186 120.400 C 298.539 120.400,297.547 118.165,296.766 117.200 C 296.110 116.390,296.152 116.599,296.985 118.300 M205.200 120.300 C 205.199 120.660,208.313 120.620,208.678 120.256 C 208.818 120.115,208.093 120.000,207.067 120.000 C 206.040 120.000,205.200 120.135,205.200 120.300 M148.400 121.046 C 151.331 122.012,154.295 122.637,157.400 122.945 L 159.400 123.143 157.600 122.754 C 156.610 122.541,153.894 121.923,151.564 121.383 C 146.813 120.280,145.723 120.164,148.400 121.046 M200.300 120.682 C 200.795 120.778,201.605 120.778,202.100 120.682 C 202.595 120.587,202.190 120.509,201.200 120.509 C 200.210 120.509,199.805 120.587,200.300 120.682 M192.400 121.822 C 190.090 122.341,187.930 122.854,187.600 122.962 C 186.504 123.320,190.561 122.736,193.000 122.183 C 198.079 121.034,198.612 120.883,197.600 120.881 C 197.050 120.880,194.710 121.303,192.400 121.822 M161.300 123.476 C 161.685 123.576,162.315 123.576,162.700 123.476 C 163.085 123.375,162.770 123.293,162.000 123.293 C 161.230 123.293,160.915 123.375,161.300 123.476 M165.505 123.883 C 166.002 123.979,166.722 123.975,167.105 123.875 C 167.487 123.775,167.080 123.696,166.200 123.701 C 165.320 123.705,165.007 123.787,165.505 123.883 M179.905 123.883 C 180.402 123.979,181.122 123.975,181.505 123.875 C 181.887 123.775,181.480 123.696,180.600 123.701 C 179.720 123.705,179.407 123.787,179.905 123.883 M276.566 132.074 C 276.911 132.566,277.092 133.395,276.980 133.974 L 276.782 135.000 277.199 134.043 C 277.587 133.152,276.879 131.200,276.168 131.200 C 276.051 131.200,276.230 131.593,276.566 132.074 M108.000 140.179 C 108.000 140.289,108.540 140.659,109.200 141.000 C 109.860 141.341,110.400 141.531,110.400 141.421 C 110.400 141.311,109.860 140.941,109.200 140.600 C 108.540 140.259,108.000 140.069,108.000 140.179 M296.879 144.900 C 295.630 148.291,295.378 149.269,296.079 148.000 C 296.941 146.440,298.081 143.242,297.933 142.799 C 297.860 142.579,297.385 143.525,296.879 144.900 M151.206 145.033 C 151.209 145.455,151.395 146.070,151.618 146.400 C 151.915 146.838,151.952 146.676,151.756 145.800 C 151.427 144.329,151.198 144.010,151.206 145.033 M291.809 155.800 C 290.099 158.607,289.898 159.003,290.489 158.400 C 291.243 157.630,292.936 154.800,292.642 154.800 C 292.519 154.800,292.144 155.250,291.809 155.800 M141.754 157.926 C 141.892 158.149,141.779 158.407,141.502 158.499 C 141.226 158.591,141.585 158.667,142.300 158.667 C 143.015 158.667,143.555 158.631,143.500 158.588 C 142.924 158.132,141.562 157.616,141.754 157.926 M287.572 162.466 C 286.227 165.018,278.744 174.389,274.586 178.730 C 272.005 181.423,269.990 183.723,270.107 183.840 C 270.655 184.388,278.261 180.540,280.298 178.682 C 280.793 178.232,281.293 177.960,281.411 178.078 C 281.866 178.533,281.584 202.019,280.997 212.597 C 280.657 218.711,280.474 223.807,280.590 223.923 C 280.705 224.039,280.806 223.878,280.813 223.567 C 280.821 223.255,280.900 221.920,280.990 220.600 C 281.080 219.280,281.258 215.680,281.385 212.600 C 281.512 209.520,281.698 206.100,281.798 205.000 C 282.196 200.656,282.396 184.392,282.094 180.904 C 281.795 177.440,281.833 177.114,282.703 175.704 C 283.475 174.455,283.614 173.745,283.523 171.514 C 283.419 168.936,283.478 168.742,284.995 166.714 C 288.246 162.365,288.506 161.973,288.288 161.755 C 288.165 161.632,287.843 161.952,287.572 162.466 M263.489 182.830 C 263.978 183.339,264.478 183.655,264.601 183.532 C 264.724 183.409,264.324 182.992,263.712 182.606 L 262.600 181.904 263.489 182.830 M247.437 185.358 C 245.346 186.444,244.525 187.049,245.014 187.144 C 246.355 187.406,256.481 186.721,256.137 186.392 C 255.722 185.996,250.959 183.578,250.751 183.658 C 250.668 183.690,249.177 184.455,247.437 185.358 M209.232 185.290 C 209.214 185.449,208.570 188.084,207.800 191.145 C 207.030 194.206,206.416 196.955,206.434 197.255 C 206.453 197.555,207.166 195.100,208.018 191.800 C 208.870 188.500,209.499 185.620,209.415 185.400 C 209.332 185.180,209.249 185.130,209.232 185.290 M257.232 190.001 C 257.176 191.765,264.152 194.436,264.704 192.861 C 264.857 192.424,264.724 192.412,263.998 192.801 C 263.284 193.183,263.167 193.177,263.417 192.772 C 263.637 192.417,263.540 192.337,263.095 192.508 C 262.745 192.643,262.236 192.485,261.965 192.158 C 261.694 191.831,261.231 191.656,260.936 191.769 C 260.641 191.882,260.397 191.756,260.394 191.487 C 260.390 191.139,260.291 191.153,260.050 191.534 C 259.777 191.964,259.665 191.946,259.471 191.440 C 259.339 191.096,258.972 190.912,258.657 191.033 C 258.286 191.176,257.940 190.857,257.674 190.127 C 257.266 189.007,257.263 189.006,257.232 190.001 M203.599 211.000 C 203.512 211.540,203.292 213.046,202.592 217.912 C 202.266 220.174,202.017 222.514,202.037 223.112 C 202.058 223.710,202.506 221.320,203.033 217.800 C 203.561 214.280,203.918 211.220,203.828 211.000 C 203.718 210.733,203.642 210.733,203.599 211.000 M280.093 226.800 C 280.093 227.570,280.175 227.885,280.276 227.500 C 280.376 227.115,280.376 226.485,280.276 226.100 C 280.175 225.715,280.093 226.030,280.093 226.800 M201.293 229.600 C 201.293 230.370,201.375 230.685,201.476 230.300 C 201.576 229.915,201.576 229.285,201.476 228.900 C 201.375 228.515,201.293 228.830,201.293 229.600 M200.934 235.600 C 200.934 237.250,201.005 237.925,201.091 237.100 C 201.178 236.275,201.178 234.925,201.091 234.100 C 201.005 233.275,200.934 233.950,200.934 235.600 M200.542 244.600 C 200.541 246.580,200.608 247.440,200.692 246.512 C 200.776 245.584,200.777 243.964,200.695 242.912 C 200.612 241.860,200.543 242.620,200.542 244.600 M278.909 243.200 C 278.909 244.190,278.987 244.595,279.082 244.100 C 279.178 243.605,279.178 242.795,279.082 242.300 C 278.987 241.805,278.909 242.210,278.909 243.200 M278.114 253.000 C 278.117 254.100,278.195 254.503,278.287 253.895 C 278.379 253.286,278.377 252.386,278.282 251.895 C 278.187 251.403,278.111 251.900,278.114 253.000 M200.928 254.400 C 200.928 255.830,201.001 256.415,201.089 255.700 C 201.178 254.985,201.178 253.815,201.089 253.100 C 201.001 252.385,200.928 252.970,200.928 254.400 M277.389 258.989 C 277.232 260.885,277.189 262.523,277.295 262.629 C 277.401 262.735,277.614 261.268,277.768 259.368 C 277.923 257.469,277.965 255.832,277.863 255.729 C 277.760 255.627,277.547 257.094,277.389 258.989 M201.293 259.600 C 201.293 260.370,201.375 260.685,201.476 260.300 C 201.576 259.915,201.576 259.285,201.476 258.900 C 201.375 258.515,201.293 258.830,201.293 259.600 M276.457 268.700 C 276.190 271.725,275.895 275.280,275.801 276.600 L 275.631 279.000 276.003 277.000 C 276.606 273.756,277.469 263.200,277.132 263.200 C 277.028 263.200,276.725 265.675,276.457 268.700 M202.101 265.400 C 202.105 266.280,202.187 266.593,202.283 266.095 C 202.379 265.598,202.375 264.878,202.275 264.495 C 202.175 264.113,202.096 264.520,202.101 265.400 M202.526 268.200 C 202.647 268.860,202.959 270.623,203.221 272.118 C 203.483 273.613,203.775 274.758,203.870 274.663 C 204.102 274.432,202.890 267.553,202.563 267.244 C 202.422 267.110,202.405 267.540,202.526 268.200 M203.778 276.035 C 203.631 276.274,203.710 276.670,203.955 276.915 C 204.282 277.242,204.400 277.126,204.400 276.480 C 204.400 275.514,204.192 275.365,203.778 276.035 M275.309 281.600 C 275.309 282.590,275.387 282.995,275.482 282.500 C 275.578 282.005,275.578 281.195,275.482 280.700 C 275.387 280.205,275.309 280.610,275.309 281.600 M206.421 288.000 C 206.373 288.785,208.376 298.365,208.804 299.400 C 209.326 300.660,208.812 297.687,207.570 292.262 C 206.959 289.588,206.441 287.670,206.421 288.000 M274.093 293.200 C 274.093 293.970,274.175 294.285,274.276 293.900 C 274.376 293.515,274.376 292.885,274.276 292.500 C 274.175 292.115,274.093 292.430,274.093 293.200 M273.701 296.600 C 273.705 297.480,273.787 297.793,273.883 297.295 C 273.979 296.798,273.975 296.078,273.875 295.695 C 273.775 295.313,273.696 295.720,273.701 296.600 M273.309 301.600 C 273.309 302.590,273.387 302.995,273.482 302.500 C 273.578 302.005,273.578 301.195,273.482 300.700 C 273.387 300.205,273.309 300.610,273.309 301.600 M272.901 305.000 C 272.905 305.880,272.987 306.193,273.083 305.695 C 273.179 305.198,273.175 304.478,273.075 304.095 C 272.975 303.713,272.896 304.120,272.901 305.000 M272.509 308.400 C 272.509 309.390,272.587 309.795,272.682 309.300 C 272.778 308.805,272.778 307.995,272.682 307.500 C 272.587 307.005,272.509 307.410,272.509 308.400 M238.901 309.800 C 238.905 310.680,238.987 310.993,239.083 310.495 C 239.179 309.998,239.175 309.278,239.075 308.895 C 238.975 308.513,238.896 308.920,238.901 309.800 M241.743 311.000 C 242.875 315.992,243.735 319.198,243.898 319.035 C 244.145 318.789,242.430 311.630,241.926 310.800 C 241.644 310.335,241.603 310.380,241.743 311.000 M271.819 313.100 C 271.684 314.585,271.408 317.150,271.205 318.800 C 270.273 326.389,270.246 328.000,271.053 327.994 C 271.616 327.989,271.668 327.904,271.265 327.649 C 270.760 327.328,270.955 323.637,271.765 318.200 C 272.149 315.621,272.498 310.400,272.287 310.400 C 272.164 310.400,271.953 311.615,271.819 313.100 M211.767 312.600 C 211.879 313.040,212.347 315.104,212.806 317.187 C 213.524 320.445,214.000 321.996,214.000 321.078 C 214.000 320.281,212.241 312.903,211.931 312.400 C 211.647 311.938,211.609 311.984,211.767 312.600 M238.501 313.400 C 238.505 314.280,238.587 314.593,238.683 314.095 C 238.779 313.598,238.775 312.878,238.675 312.495 C 238.575 312.113,238.496 312.520,238.501 313.400 M292.137 316.200 C 292.139 317.960,292.209 318.630,292.293 317.689 C 292.378 316.749,292.377 315.309,292.291 314.489 C 292.205 313.670,292.136 314.440,292.137 316.200 M237.992 317.833 C 237.983 318.609,237.342 325.252,236.218 336.200 C 235.563 342.582,235.476 345.240,236.042 341.600 C 236.796 336.749,238.516 317.583,238.224 317.290 C 238.101 317.167,237.996 317.412,237.992 317.833 M330.126 323.500 C 329.989 323.885,329.801 324.380,329.709 324.600 C 329.616 324.820,329.824 324.651,330.170 324.224 C 330.799 323.448,330.989 322.800,330.587 322.800 C 330.471 322.800,330.263 323.115,330.126 323.500 M216.068 330.600 C 216.062 331.040,216.211 331.760,216.400 332.200 C 216.838 333.219,216.838 332.168,216.400 330.800 C 216.143 329.996,216.077 329.957,216.068 330.600 M246.800 330.571 C 246.800 330.847,247.729 334.205,248.884 338.102 C 249.129 338.928,249.403 339.531,249.492 339.441 C 249.582 339.352,249.092 337.330,248.404 334.949 C 247.265 331.010,246.800 329.739,246.800 330.571 M326.411 333.771 C 325.817 335.334,325.934 335.580,326.647 334.265 C 326.986 333.640,327.164 333.030,327.042 332.909 C 326.921 332.788,326.637 333.176,326.411 333.771 M217.202 335.033 C 217.203 335.235,217.376 336.030,217.585 336.800 C 217.794 337.570,218.054 338.650,218.162 339.200 C 218.523 341.033,218.730 341.792,219.141 342.800 C 219.824 344.473,219.650 343.344,218.568 339.074 C 217.622 335.341,217.196 334.083,217.202 335.033 M235.301 346.600 C 235.305 347.480,235.387 347.793,235.483 347.295 C 235.579 346.798,235.575 346.078,235.475 345.695 C 235.375 345.313,235.296 345.720,235.301 346.600 M251.355 347.000 C 251.851 349.226,253.727 355.207,253.880 355.054 C 254.052 354.881,251.598 346.308,251.288 346.000 C 251.178 345.890,251.208 346.340,251.355 347.000 M354.179 347.989 C 355.047 348.439,355.899 349.030,356.072 349.303 C 356.283 349.636,356.390 349.650,356.394 349.346 C 356.401 348.794,354.962 347.814,353.600 347.443 C 353.038 347.291,353.292 347.530,354.179 347.989 M234.825 349.980 C 234.808 350.927,234.929 351.231,235.212 350.948 C 235.485 350.675,235.494 350.209,235.238 349.568 C 234.874 348.658,234.849 348.683,234.825 349.980 M221.600 352.141 C 221.600 352.291,221.961 353.764,222.403 355.412 C 222.845 357.061,223.260 358.763,223.326 359.194 C 223.445 359.970,224.000 360.821,224.000 360.227 C 224.000 359.720,221.964 352.231,221.775 352.042 C 221.679 351.945,221.600 351.990,221.600 352.141 M348.400 352.400 C 347.596 352.657,347.557 352.723,348.200 352.732 C 348.640 352.738,349.360 352.589,349.800 352.400 C 350.819 351.962,349.768 351.962,348.400 352.400 M233.646 361.100 C 233.615 361.713,233.349 362.000,232.813 362.000 C 232.255 362.000,232.097 362.187,232.271 362.640 C 232.406 362.993,232.265 363.440,231.958 363.634 C 231.505 363.921,231.526 363.989,232.067 363.994 C 232.434 363.997,233.064 364.105,233.467 364.233 C 234.161 364.453,234.163 364.434,233.500 363.889 C 232.632 363.174,232.620 362.819,233.443 362.218 C 233.810 361.949,234.002 361.414,233.890 360.974 C 233.718 360.300,233.687 360.316,233.646 361.100 M225.700 362.676 C 226.611 362.914,226.584 363.142,225.500 364.362 C 225.005 364.920,224.914 365.135,225.298 364.841 C 225.682 364.546,226.357 364.400,226.798 364.515 C 227.239 364.631,227.600 364.562,227.600 364.363 C 227.600 364.163,227.420 364.000,227.200 364.000 C 226.392 364.000,226.829 362.850,227.700 362.682 C 228.195 362.587,227.790 362.505,226.800 362.501 C 225.810 362.496,225.315 362.575,225.700 362.676 M331.667 364.380 C 331.433 365.051,331.327 365.600,331.431 365.600 C 331.701 365.600,332.456 363.522,332.257 363.324 C 332.167 363.233,331.901 363.708,331.667 364.380 M235.157 366.200 C 237.025 368.949,237.080 372.760,235.253 372.854 C 234.280 372.905,234.270 372.922,235.122 373.085 C 237.735 373.585,237.891 368.866,235.352 366.101 L 234.342 365.000 235.157 366.200 M258.084 365.756 C 258.368 366.061,258.690 366.178,258.800 366.016 C 258.910 365.853,259.270 365.617,259.600 365.492 C 259.930 365.366,259.608 365.249,258.884 365.232 C 257.780 365.205,257.651 365.289,258.084 365.756 M271.200 366.600 C 269.770 367.349,268.730 367.970,268.889 367.981 C 269.453 368.019,273.502 366.082,273.772 365.645 C 274.137 365.055,274.184 365.038,271.200 366.600 M297.200 366.351 C 297.200 366.555,297.740 366.910,298.400 367.140 C 299.060 367.370,299.600 367.482,299.600 367.389 C 299.600 367.297,299.060 366.941,298.400 366.600 C 297.740 366.259,297.200 366.146,297.200 366.351 M257.423 367.689 C 257.080 368.178,256.815 368.943,256.834 369.389 C 256.859 369.961,256.974 369.846,257.226 369.000 C 257.423 368.341,257.892 367.576,258.268 367.300 C 258.645 367.025,258.749 366.800,258.499 366.800 C 258.250 366.800,257.765 367.200,257.423 367.689 M223.453 367.658 C 223.043 367.897,221.423 368.325,219.853 368.610 C 218.284 368.895,217.486 369.144,218.080 369.164 C 219.698 369.218,223.011 368.429,223.856 367.789 C 224.739 367.120,224.508 367.045,223.453 367.658 M211.788 371.389 C 212.775 372.175,215.382 372.895,216.531 372.699 C 217.050 372.610,216.594 372.418,215.400 372.223 C 214.300 372.043,212.860 371.641,212.200 371.329 C 211.094 370.806,211.062 370.810,211.788 371.389 M247.268 372.781 C 244.486 373.576,243.634 374.127,244.427 374.617 C 244.741 374.811,244.822 374.759,244.648 374.477 C 244.388 374.057,245.027 373.816,250.000 372.455 C 250.770 372.245,251.040 372.069,250.600 372.065 C 250.160 372.060,248.660 372.383,247.268 372.781 M218.100 373.076 C 218.485 373.176,219.115 373.176,219.500 373.076 C 219.885 372.975,219.570 372.893,218.800 372.893 C 218.030 372.893,217.715 372.975,218.100 373.076 M221.300 373.476 C 221.685 373.576,222.315 373.576,222.700 373.476 C 223.085 373.375,222.770 373.293,222.000 373.293 C 221.230 373.293,220.915 373.375,221.300 373.476 M232.100 373.476 C 232.485 373.576,233.115 373.576,233.500 373.476 C 233.885 373.375,233.570 373.293,232.800 373.293 C 232.030 373.293,231.715 373.375,232.100 373.476 M266.200 375.600 C 265.111 375.877,265.093 375.907,266.000 375.925 C 266.550 375.935,267.360 375.789,267.800 375.600 C 268.786 375.176,267.866 375.176,266.200 375.600 M250.875 376.208 C 251.172 376.505,255.997 376.536,256.290 376.243 C 256.424 376.109,255.213 376.000,253.600 376.000 C 251.987 376.000,250.760 376.094,250.875 376.208 M256.967 376.301 C 257.250 376.583,264.042 376.492,264.331 376.202 C 264.457 376.077,262.804 376.000,260.658 376.032 C 258.513 376.064,256.852 376.185,256.967 376.301 " stroke="none" fill="#d4dce4" fill-rule="evenodd"></path></g></svg>